<?xml version="1.0" encoding="UTF-8"?>
<svg id="Calque_2" data-name="Calque 2" xmlns="http://www.w3.org/2000/svg" viewBox="0 0 626.13 876">
  <defs>
    <style>
      .cls-1 {
        fill: #e83b14;
      }

      .cls-2 {
        fill: none;
      }

      .cls-3 {
        fill: #2b2b2b;
      }
    </style>
  </defs>
  <g id="LOGO_3E_RANGÉE" data-name="LOGO 3E RANGÉE">
    <g>
      <path class="cls-3" d="M572.78,194.87c-11.83-5.2-23.97-9.34-36.68-11.57-14.64-2.6-29.35-4.91-44.65-7.36-4.63-.74-6.99-6.01-4.44-9.94.81-1.25,1.59-2.47,2.35-3.7,6.7-10.83,6.16-21.56-.6-32.14-10.72-16.82-26.41-23.16-45.74-21.39-20.32,1.88-36.71,12.5-52.4,24.47-13.8,10.51-24.25,24.42-36.6,36.43-23.23,22.58-52.79,15.86-63.77-14.45-3.68-10.16-6.79-20.53-10.48-30.66-4.77-13.27-10.62-26.09-21.27-35.79-10.66-9.67-23.26-14.06-37.21-9.28-14.23,4.89-21.67,15.93-24.18,30.66-2.23,13.07.6,25.46,3.4,38.1,1.13,5.1,5.52,12.53-.75,15.96-6.26,3.44-11.22-3.11-15.4-7.32-8.42-8.5-16.14-17.74-24.6-26.2-11.83-11.83-25.64-20.15-42.63-22.34-23.58-3.01-41.53,16.85-36.18,39.97,2.26,9.88,8.49,17.17,14.94,24.32,4,4.39,2.97,6.27-2.41,7.12-7.5,1.16-15.01,2.3-22.48,3.57-17.56,2.98-35.26,5.28-51.27,14.09C.05,208.26-5.54,226.84,5.82,246.24c3.36,5.74,7.72,10.98,12,16.11,36.68,43.66,76.33,84.62,114.18,127.21,41.14,46.31,83.3,91.73,125.01,137.51,3.93,4.32,7.58,8.28,7.44,15.11-1.31,68.08-1.7,136.17-1.1,204.25.03,4.67-.04,9.49-1.24,13.95-1.74,6.58-4.5,12.46-13.24,12.64-22.84.46-45.32,4-67.59,8.78-18.2,3.89-35.33,10.48-50.06,22.12-13.13,10.45-14.05,22.09-3.4,34.77,6.16,7.33,13.6,12.85,22.45,16.36,15.82,6.26,32.29,10.12,49,12.92,50.41,8.46,101.18,9.45,152.06,6.58,30.37-1.73,60.5-5.52,89.5-15.5,11.43-3.93,22.34-8.71,30.51-18.09,11.51-13.18,10.98-24.68-1.52-36.82-11.47-11.16-25.63-16.89-40.78-21-24.68-6.69-50.17-7.58-75.24-11.36-17.59-2.69-19.15-4.75-19.19-22.77-.14-67.8-.03-135.63-.28-203.43-.03-8.25,2.83-14.41,8.39-20.25,54.13-57,108.9-113.4,160.27-172.91,28.43-32.93,58.99-63.97,85.08-99.02,15.01-20.11,8-48.33-15.29-58.53ZM108.56,141.06c2.73-5.1,8.18-3.68,12.68-3.36,7.64.56,13.56,5.2,19.5,9.38,12.04,8.46,21.78,19.44,32.08,29.77,7.47,7.51,15.15,14.59,25.38,18.24,18.24,6.48,33.07-4,33.11-23.55,0-8.85-2.55-17.27-4.96-25.7-2.58-8.99-5.17-18.02-3.68-27.58,1.52-10.09,8.81-13.7,17.81-8.57,7.29,4.14,10.65,11.08,13.38,18.77,7.01,19.72,11.51,40.53,24.04,57.99,18.9,26.27,51.55,31.37,78.06,13.03,16.54-11.44,28.36-27.76,43.87-40.15,10.76-8.57,21.56-17.21,35.19-20.68,6.44-1.63,13.35-2.86,19.4,1.67,7.4,5.52,9.14,15.96,2.83,23.04-9.45,10.73-19.75,20.68-29.7,30.98-12.5,13-23.19,27.16-28.08,44.82-1.62,5.92-6.12,5.56-10.4,5.74-26.88,1.13-53.75,1.91-80.65,1.56-37.11-1.17-74.21-2.48-111.31-3.4-8.71-.21-14.02-2.52-17.56-11.61-8.22-20.96-24.33-36.19-40.75-50.81-9.63-8.53-19.16-17.17-26.8-27.65-2.55-3.5-5.84-7.4-3.44-11.93ZM40.05,225.57c-2.19-.63-5.13-.99-5.34-3.68-.21-3.11,2.97-3.08,5.06-3.72,25.78-7.93,52.43-11.36,78.99-15.26,2.09-.28,4.03.15,5.8,1.46,10.45,7.71,19.4,16.92,25.92,28.18,3.5,6.05,1.91,7.36-9.95,6.97-.18,0-.35-.03-.53-.03-27.83-3.19-57.85-4.61-87.31-10.45-4.28-.85-8.42-2.23-12.64-3.47ZM355.29,807.44c3.32.21,7.71.42,9.69-4.19,1.36-3.19,4.65-1.97,7.02-1.94,22.55.35,44.29,4.74,65.1,13.39,2.24.92,5.68,2.86,7.59,4.37,5.09,4.19,4.36,6.91-2.66,10.45-19.3,9.74-40.15,14.73-61.39,16.53-62.45,5.31-124.86,6.88-186.72-6.37-11.41-2.43-22.73-5.45-33.39-10.23-9.16-4.11-9.16-7.72-.85-13.1,11.08-7.23,23.91-9.31,36.51-11.43,11.22-1.91,22.59-2.86,33.91-4.04,6.13-.66,12-.32,17.95,2.41,7.83,3.65,21.13-1.6,28.51-10.66,8.94-11.01,13.44-23.79,13.47-38.02.09-33.6.04-67.19.04-100.79h.36c0-33.89-.07-67.81.11-101.68.03-3.27-2.87-9.53,4.63-8.46,5.35.7,12.26-1.04,12.22,9.13-.19,46.45.49,92.91.73,139.35.16,20.17.23,40.33,0,60.5-.17,15.65,5.32,29.17,15.16,40.99,8.25,9.92,19.79,13.04,32.01,13.79ZM547.29,260.07c-12.01,13.09-23.83,22.01-36.13,39.21-.19.19-.44.35-.67.54l-.03.04-18.28,20.89c-.61.7-.99,1.6-1.18,2.49-.86,3.5-2.96,5.13-4.65,6.91-51.13,55.81-102.29,111.55-153.51,167.3-2.96,3.22-6.62,5.8-9.36,9.21-9.47,11.69-22.3,11.24-35.27,9.93-4.62-.5-7.83-3.69-10.76-7-53.04-60.37-110.25-116.94-161.79-178.64-17.71-21.22-37.66-40.2-57.66-60.94-4.4-4.56-.29-12.14,5.96-10.9,6.4,1.28,12.52,2.81,18.7,3.7,23.47,3.44,47.04,4.94,70.62,6.27,67.43,3.83,134.96,4.46,202.46,3.57,55.85-.7,111.53-4.43,166.86-11.91,7.23-.96,14.21-3.44,21.31-5.07,1.31-.28,3.28-.25,4.08.51,1.14,1.06.35,2.74-.7,3.89ZM549.87,227.87c-22.94,6.16-46.31,9.14-70.03,10.09-13.28.57-26.52,2.27-41.53,3.65-.28,0-.57.04-.85,0-.74,0-2.3-.07-3.86.04-4.21.31-5.45-1.6-3.86-5.21,5.53-12.71,12.29-24.53,23.86-32.92,2.87-2.06,5.92-2.23,9.14-2.09,29.56,1.38,58.63,5.98,87.2,13.7,4.32,1.17,11.15,2.05,11.15,6.69.04,5.31-6.97,4.92-11.22,6.05Z"/>
      <path class="cls-2" d="M547.29,260.07c-12.01,13.09-23.83,22.01-36.13,39.21-.19.19-.44.35-.67.54l-.03.04-18.28,20.89c-.61.7-.99,1.6-1.18,2.49-.86,3.5-2.96,5.13-4.65,6.91-51.13,55.81-102.29,111.55-153.51,167.3-2.96,3.22-6.62,5.8-9.36,9.21-9.47,11.69-22.3,11.24-35.27,9.93-4.62-.5-7.83-3.69-10.76-7-53.04-60.37-110.25-116.94-161.79-178.64-17.71-21.22-37.66-40.2-57.66-60.94-4.4-4.56-.29-12.14,5.96-10.9,6.4,1.28,12.52,2.81,18.7,3.7,23.47,3.44,47.04,4.94,70.62,6.27,67.43,3.83,134.96,4.46,202.46,3.57,55.85-.7,111.53-4.43,166.86-11.91,7.23-.96,14.21-3.44,21.31-5.07,1.31-.28,3.28-.25,4.08.51,1.14,1.06.35,2.74-.7,3.89Z"/>
      <path class="cls-2" d="M442.03,829.52c-19.3,9.74-40.15,14.73-61.39,16.53-62.45,5.31-124.86,6.88-186.72-6.37-11.41-2.43-22.73-5.45-33.39-10.23-9.16-4.11-9.16-7.72-.85-13.1,11.08-7.23,23.91-9.31,36.51-11.43,11.22-1.91,22.59-2.86,33.91-4.04,6.13-.66,12-.32,17.95,2.41,7.83,3.65,21.13-1.6,28.51-10.66,8.94-11.01,13.44-23.79,13.47-38.02.09-33.6.04-67.19.04-100.79h.36c0-33.89-.07-67.81.11-101.68.03-3.27-2.87-9.53,4.63-8.46,5.35.7,12.26-1.04,12.22,9.13-.19,46.45.49,92.91.73,139.35.16,20.17.23,40.33,0,60.5-.17,15.65,5.32,29.17,15.16,40.99,8.25,9.92,19.79,13.04,32.01,13.79,3.32.21,7.71.42,9.69-4.19,1.36-3.19,4.65-1.97,7.02-1.94,22.55.35,44.29,4.74,65.1,13.39,2.24.92,5.68,2.86,7.59,4.37,5.09,4.19,4.36,6.91-2.66,10.45Z"/>
      <path class="cls-2" d="M561.09,221.82c.04,5.31-6.97,4.92-11.22,6.05-22.94,6.16-46.31,9.14-70.03,10.09-13.28.57-26.52,2.27-41.53,3.65-.28,0-.57.04-.85,0-.74,0-2.3-.07-3.86.04-4.21.31-5.45-1.6-3.86-5.21,5.53-12.71,12.29-24.53,23.86-32.92,2.87-2.06,5.92-2.23,9.14-2.09,29.56,1.38,58.63,5.98,87.2,13.7,4.32,1.17,11.15,2.05,11.15,6.69Z"/>
      <path class="cls-2" d="M140.53,239.52c-.18,0-.35-.03-.53-.03-27.83-3.19-57.85-4.61-87.31-10.45-4.28-.85-8.42-2.23-12.64-3.47-2.19-.63-5.13-.99-5.34-3.68-.21-3.11,2.97-3.08,5.06-3.72,25.78-7.93,52.43-11.36,78.99-15.26,2.09-.28,4.03.15,5.8,1.46,10.45,7.71,19.4,16.92,25.92,28.18,3.5,6.05,1.91,7.36-9.95,6.97Z"/>
      <path class="cls-1" d="M457.25,163.36c-9.45,10.73-19.75,20.68-29.7,30.98-12.5,13-23.19,27.16-28.08,44.82-1.62,5.92-6.12,5.56-10.4,5.74-26.88,1.13-53.75,1.91-80.65,1.56-37.11-1.17-74.21-2.48-111.31-3.4-8.71-.21-14.02-2.52-17.56-11.61-8.22-20.96-24.33-36.19-40.75-50.81-9.63-8.53-19.16-17.17-26.8-27.65-2.55-3.5-5.84-7.4-3.44-11.93,2.73-5.1,8.18-3.68,12.68-3.36,7.64.56,13.56,5.2,19.5,9.38,12.04,8.46,21.78,19.44,32.08,29.77,7.47,7.51,15.15,14.59,25.38,18.24,18.24,6.48,33.07-4,33.11-23.55,0-8.85-2.55-17.27-4.96-25.7-2.58-8.99-5.17-18.02-3.68-27.58,1.52-10.09,8.81-13.7,17.81-8.57,7.29,4.14,10.65,11.08,13.38,18.77,7.01,19.72,11.51,40.53,24.04,57.99,18.9,26.27,51.55,31.37,78.06,13.03,16.54-11.44,28.36-27.76,43.87-40.15,10.76-8.57,21.56-17.21,35.19-20.68,6.44-1.63,13.35-2.86,19.4,1.67,7.4,5.52,9.14,15.96,2.83,23.04Z"/>
      <path class="cls-3" d="M436.56,0c-23.2-.03-41.89,20.36-42.44,44.53-.58,25.39,21.98,39.35,42.95,40.78,20.09-.01,44.06-23.13,43.9-42.37C480.79,19.86,460.28.03,436.56,0ZM438.28,60.67c-10.74,0-21.04-8.86-21.03-18.08.01-9.57,9.57-19.55,18.79-19.61,9.29-.06,20.89,11.54,21.17,21.19.27,8.77-8.6,16.51-18.93,16.5Z"/>
      <path class="cls-1" d="M457.21,44.17c.27,8.77-8.6,16.51-18.93,16.5-10.74,0-21.04-8.86-21.03-18.08.01-9.57,9.57-19.55,18.79-19.61,9.29-.06,20.89,11.54,21.17,21.19Z"/>
      <path class="cls-3" d="M567.95,5.55c-16.69.4-32.62,9.4-44.18,26.02-8.32,11.95-16.72,24.01-19.68,38.65-1.66,8.22-.52,8.82,7.2,6.36,8.04-2.56,16.19-4.78,24.32-7.04,14.12-3.93,28.85-4.14,43.13-7.01,16.39-3.3,25.5-12.55,26.22-26.14,1-18.65-11.79-30.51-37.01-30.84ZM567.81,41.51c-2.46.62-4.94,1.19-7.47,1.72-6.76,1.44-10.87-7.48-5.27-11.53.06-.04.11-.08.16-.12,2.62-1.87,5.31-3.87,8.6-4.09,5.94-.39,13.41-.54,14.72,6.1,1.11,5.68-6.18,6.77-10.74,7.92Z"/>
      <path class="cls-1" d="M567.81,41.51c-2.46.62-4.94,1.19-7.47,1.72-6.76,1.44-10.87-7.48-5.27-11.53.06-.04.11-.08.16-.12,2.62-1.87,5.31-3.87,8.6-4.09,5.94-.39,13.41-.54,14.72,6.1,1.11,5.68-6.18,6.77-10.74,7.92Z"/>
      <path class="cls-3" d="M618.94,103.2c-9.78-11.57-22.76-16.4-41.54-16.69-.3,0-.6.01-.9.03-19.44,1.57-36.9,13.41-50.26,31.8-5,6.89-3.51,9.59,5.25,11.74,11.9,2.92,23.59,6.18,34.94,11.04,9.3,3.98,18.86,7.68,29.34,8.18,12.39.6,21.49-3.79,27.08-15.15,5.53-11.26,3.95-21.65-3.91-30.95ZM600.2,121.24c-1.23,3.01-4.4,3.94-7.28,3.98-9.55.15-16.8-5.8-24.54-10.15-2.75-1.54-.04-3.53,1.48-4.62,3.47-2.47,7.58-2.72,11.68-2.81,5.77-.21,10.93,1.41,15.18,5.39,2.34,2.19,4.93,4.62,3.48,8.21Z"/>
      <path class="cls-1" d="M600.2,121.24c-1.23,3.01-4.4,3.94-7.28,3.98-9.55.15-16.8-5.8-24.54-10.15-2.75-1.54-.04-3.53,1.48-4.62,3.47-2.47,7.58-2.72,11.68-2.81,5.77-.21,10.93,1.41,15.18,5.39,2.34,2.19,4.93,4.62,3.48,8.21Z"/>
      <path class="cls-3" d="M351.03,106.57c-.35,11.37-12.45,23.18-23.49,22.93-10.5-.23-22.89-12.84-22.59-23,.34-11.86,11.58-22.89,23.27-22.83,12.34.05,23.18,10.93,22.81,22.9Z"/>
      <path class="cls-3" d="M50.86,64.1c-.02,10.41-10.36,19.58-21.8,19.35-11.03-.22-19.28-8.04-19.32-18.3-.04-12.47,8.62-22.18,19.76-22.17,11.11.02,21.38,10.17,21.36,21.12Z"/>
      <path class="cls-3" d="M206.63,32.86c-.04,9.31-7.4,16.92-16.49,17.06-9.77.16-17.75-7.45-17.56-16.74.22-10.65,7.57-18.72,16.92-18.57,10.03.15,17.17,7.76,17.13,18.25Z"/>
    </g>
  </g>
</svg>