<?xml version="1.0" encoding="UTF-8"?>
<svg id="Calque_2" data-name="Calque 2" xmlns="http://www.w3.org/2000/svg" xmlns:xlink="http://www.w3.org/1999/xlink" viewBox="0 0 554 401">
  <defs>
    <style>
      .cls-1, .cls-2 {
        fill: #18eaf1;
      }

      .cls-3 {
        filter: url(#outer-glow-2);
      }

      .cls-3, .cls-4, .cls-5, .cls-6, .cls-7, .cls-8 {
        fill: #f307e7;
      }

      .cls-9 {
        fill: #fff;
      }

      .cls-10 {
        fill: none;
      }

      .cls-11 {
        fill: #a238f4;
      }

      .cls-5 {
        filter: url(#outer-glow-3);
      }

      .cls-6 {
        filter: url(#outer-glow-6);
      }

      .cls-7 {
        filter: url(#outer-glow-4);
      }

      .cls-12 {
        filter: url(#outer-glow-8);
      }

      .cls-8 {
        filter: url(#outer-glow-5);
      }

      .cls-13 {
        fill: #a007e7;
      }

      .cls-2 {
        filter: url(#outer-glow-1);
      }

      .cls-14 {
        fill: #1d1e1b;
      }

      .cls-15 {
        filter: url(#outer-glow-7);
        opacity: .85;
      }
    </style>
    <filter id="outer-glow-1" x="0" y="0" width="554" height="401" filterUnits="userSpaceOnUse">
      <feOffset dx="0" dy="0"/>
      <feGaussianBlur result="blur" stdDeviation="25"/>
      <feFlood flood-color="#27c2ff" flood-opacity="1"/>
      <feComposite in2="blur" operator="in"/>
      <feComposite in="SourceGraphic"/>
    </filter>
    <filter id="outer-glow-2" x="127" y="192" width="184" height="173" filterUnits="userSpaceOnUse">
      <feOffset dx="0" dy="0"/>
      <feGaussianBlur result="blur-2" stdDeviation="20"/>
      <feFlood flood-color="#f500fc" flood-opacity="1"/>
      <feComposite in2="blur-2" operator="in"/>
      <feComposite in="SourceGraphic"/>
    </filter>
    <filter id="outer-glow-3" x="183" y="193" width="162" height="173" filterUnits="userSpaceOnUse">
      <feOffset dx="0" dy="0"/>
      <feGaussianBlur result="blur-3" stdDeviation="20"/>
      <feFlood flood-color="#f500fc" flood-opacity="1"/>
      <feComposite in2="blur-3" operator="in"/>
      <feComposite in="SourceGraphic"/>
    </filter>
    <filter id="outer-glow-4" x="218" y="193" width="164" height="172" filterUnits="userSpaceOnUse">
      <feOffset dx="0" dy="0"/>
      <feGaussianBlur result="blur-4" stdDeviation="20"/>
      <feFlood flood-color="#f500fc" flood-opacity="1"/>
      <feComposite in2="blur-4" operator="in"/>
      <feComposite in="SourceGraphic"/>
    </filter>
    <filter id="outer-glow-5" x="255" y="193" width="150" height="172" filterUnits="userSpaceOnUse">
      <feOffset dx="0" dy="0"/>
      <feGaussianBlur result="blur-5" stdDeviation="20"/>
      <feFlood flood-color="#f500fc" flood-opacity="1"/>
      <feComposite in2="blur-5" operator="in"/>
      <feComposite in="SourceGraphic"/>
    </filter>
    <filter id="outer-glow-6" x="272" y="192" width="165" height="173" filterUnits="userSpaceOnUse">
      <feOffset dx="0" dy="0"/>
      <feGaussianBlur result="blur-6" stdDeviation="20"/>
      <feFlood flood-color="#f500fc" flood-opacity="1"/>
      <feComposite in2="blur-6" operator="in"/>
      <feComposite in="SourceGraphic"/>
    </filter>
    <filter id="outer-glow-7" x="58" y="127" width="418" height="186" filterUnits="userSpaceOnUse">
      <feOffset dx="0" dy="0"/>
      <feGaussianBlur result="blur-7" stdDeviation="20"/>
      <feFlood flood-color="#f500fc" flood-opacity="1"/>
      <feComposite in2="blur-7" operator="in"/>
      <feComposite in="SourceGraphic"/>
    </filter>
    <filter id="outer-glow-8" x="282" y="132" width="164" height="82" filterUnits="userSpaceOnUse">
      <feOffset dx="0" dy="0"/>
      <feGaussianBlur result="blur-8" stdDeviation="10"/>
      <feFlood flood-color="#ff29fa" flood-opacity="1"/>
      <feComposite in2="blur-8" operator="in"/>
      <feComposite in="SourceGraphic"/>
    </filter>
  </defs>
  <g id="Calque_1-2" data-name="Calque 1">
    <g>
      <path class="cls-9" d="M328.46,329.26l-110.98-.56-87.53-.27c-8.93-.03-15.89-4.91-18.18-12.74l-8.28-28.37-23.69-79.81-8.17-27.85c-.81-2.74-.96-5.59-.45-8.45.61-3.44,2.18-6.78,4.43-9.41,4.5-5.3,10.27-6.31,14.21-6.62l138.62-10.65,101.27-7.71,16.87-1.3c-1.36-3.08-2.71-6.25-4-9.46l-.17-.44c-.5-1.28-1.2-3.08-1.66-5.24-.59-2.73-.66-5.44-.21-8.06l.02-.17.03-.12c.47-2.49,1.4-4.82,2.77-6.91,2.56-3.91,6.5-6.75,11.22-8.11-2.77-3.65-3.99-8.35-3.11-13.12.13-.7.3-1.39.52-2.06,2.33-7.36,8.94-12.32,16.46-12.32,1.71,0,3.42.26,5.08.79,4.33,1.4,8.01,4.55,10.11,8.65.27.53.51,1.07.73,1.62,3.1-4.4,8.1-7.13,13.55-7.13,1.79,0,3.55.29,5.24.88,7.55,2.53,12.08,9.97,11.1,17.8.45.42.87.86,1.28,1.33.77-.1,1.55-.16,2.33-.16,1.61,0,3.21.23,4.75.67,4.01-5.85,10.62-9.53,17.71-9.53,2.13,0,4.24.33,6.27.98,4.38,1.41,8.16,4.19,10.83,7.87,1.67-.38,3.36-.57,5.07-.57,2.1,0,4.19.29,6.2.88l.48.15c7.48,2.52,10.97,7.11,12.58,10.53,1.66,3.52,2.12,7.43,1.33,11.32v1.43l-.51.55c-.12.39-.26.79-.41,1.19-.38,1.01-.84,1.97-1.37,2.88,1.38,3.52,1.72,7.18,1,10.65v.59l-.29.63c-.81,2.92-2.35,5.57-4.57,7.91-1.77,1.86-3.81,3.3-6.03,4.27,0,.25-.01.49-.03.74-.07,1.18-.23,2.34-.49,3.45-.68,3.07-2.09,5.97-4.09,8.44l-27.68,97.6-16.65,58.78c-3.8,13.41-13.56,14.86-17.58,14.86l-75.95-.3ZM420.04,133.42c.08-.09.16-.19.25-.28-.17.07-.35.13-.53.2.09.03.19.05.28.08ZM395.27,125.22c2.06.73,4.11,1.47,6.13,2.19-.68-1.11-1.25-2.34-1.66-3.65-.1-.31-.19-.62-.27-.93-1.18,1.18-2.61,2.01-4.19,2.4Z"/>
      <path class="cls-2" d="M477.09,107.07c-1.19-2.54-3.84-5.97-9.64-7.92l-.28-.08c-1.56-.46-3.18-.68-4.81-.68-2.52,0-5,.54-7.36,1.57-1.84-4.18-5.4-7.6-10.07-9.11-1.53-.49-3.13-.74-4.74-.74-6.74,0-13.05,4.53-15.52,11.07-.99-.7-2.08-1.25-3.23-1.63-1.19-.38-2.44-.58-3.71-.58-1.5,0-2.97.28-4.35.78-1.31-2.09-2.95-3.77-4.83-5,.03-.09.07-.18.1-.28.04-.12.08-.24.11-.36.12-.4.22-.8.3-1.21,1.07-5.71-2.08-11.31-7.64-13.18-1.17-.4-2.39-.6-3.62-.6-4.94,0-9.38,3.28-11.05,8.13-.13.37-.24.74-.32,1.12,0,.01,0,.03,0,.04-.34,1.44-.39,2.92-.15,4.36.04.29.11.58.18.87-.65-.4-1.31-.77-2-1.1-1.47-.69-2.99-1.12-4.55-1.31.07-.22.13-.45.19-.67.06-.25.12-.51.17-.77.48-2.62.07-5.42-1.19-7.86-1.5-2.94-4.11-5.19-7.17-6.16-1.16-.37-2.36-.56-3.58-.56-5.33,0-10.03,3.56-11.69,8.83-.08.26-.15.51-.22.77-1.45,5.91,1.85,11.97,7.86,14.07.32.11.63.2.96.27.05.01.11.03.15.04-.4.82-.74,1.69-.99,2.59-.75-.06-1.52-.09-2.31-.09-1.69,0-3.25.15-4.83.46-4.19.86-7.69,3.13-9.82,6.39-.9,1.38-1.54,2.91-1.91,4.53,0,.03,0,.05-.01.08-.49,2.18-.49,4.52.01,6.88.38,1.76.98,3.29,1.45,4.52l.13.34c2.05,5.12,4.29,10.17,6.53,15.13.1.22.2.43.3.65l-23.96,1.84-101.26,7.71-138.62,10.65c-3.31.25-7.53,1.04-10.79,4.88-1.35,1.59-2.59,3.81-3.16,6.37-.48,2.1-.52,4.44.18,6.84l8.17,27.83,23.69,79.83,8.27,28.37c1.67,5.71,6.68,9.12,13.4,9.14l87.54.27,110.97.56,75.94.3c3.58,0,10-1.45,12.76-11.22l16.65-58.79,27.99-98.66c2-2.19,3.35-4.9,3.86-7.82.12-.63.19-1.26.22-1.91.07-1.4-.05-2.78-.34-4.1.09-.01.18-.03.27-.04,2.8-.45,5.36-1.81,7.49-4.04,1.92-2.02,3.14-4.36,3.61-6.84.01-.03.01-.05.01-.08.47-2.49.19-5.12-.86-7.74-.32-.77-.67-1.48-1.08-2.17.11-.13.21-.25.32-.38.9-1.1,1.64-2.37,2.17-3.79.32-.85.57-1.71.72-2.58,0,0,0-.01,0-.03.5-2.75.16-5.51-1-7.98ZM380.09,104.96c.25.1.47.22.68.35.14.09.27.19.4.3s.25.22.37.34c.53.52.96,1.15,1.4,1.74,1.62,2.17,2.69,4.64,3.88,7.04.89,1.73,1.81,3.4,3.38,4.62,2.8,2.15,5.96,1.14,7.07-2.32.43-1.36.51-2.76.58-4.17.01-.2.02-.4.03-.6,0-.44.02-.87.05-1.3.08-1.29.26-2.56.86-3.76.29-.59.66-1,1.07-1.24.7-.38,1.52-.23,2.28.49.07.06.14.13.21.21.32.36.57.74.75,1.15.39.89.49,1.87.52,2.91.11,3.85-.3,7.77.89,11.54.36,1.13.86,2.14,1.48,3.03.15.22.32.44.48.64.25.31.52.6.8.86.18.18.38.35.58.51.11.08.2.16.31.24,1.94,1.45,4.39,2.12,7,1.81.17-.01.34-.04.52-.07.26-.04.52-.09.79-.15.29-.07.57-.15.86-.23,3.51-1.1,6.48-3.31,9.87-4.63.27-.11.54-.21.82-.32.24-.09.47-.18.71-.26.35-.13.71-.26,1.06-.37.23-.08.46-.15.7-.21,0,0,0,0,.01,0,.41-.11.83-.22,1.25-.3.14-.03.28-.06.42-.08.14-.03.28-.05.43-.06.62-.08,1.24-.11,1.87-.07.31.01.62.04.92.08.91.13,1.76.44,2.35,1.29.98,1.39.68,3.32-.81,4.21-.57.34-1.14.67-1.71.99-.29.15-.58.32-.86.48-.58.31-1.15.63-1.73.93-.86.46-1.74.92-2.6,1.4-2.9,1.59-5.56,3.49-7.41,6.33-.53.83-1.19.68-1.86.5-.08-.03-.18-.06-.27-.08-.59-.16-1.18-.32-1.77-.48-1.76-.49-3.53-1-5.29-1.52-1.17-.35-2.35-.71-3.51-1.08-1.17-.37-2.33-.74-3.49-1.14-6.37-2.26-12.72-4.57-19.11-6.79-1.5-.53-2.28-1.24-2.4-3.01-.15-2.6-.96-4.97-2.04-7.23-.22-.46-.44-.9-.68-1.35-.46-.89-.97-1.77-1.47-2.64-1.18-2.03-2.34-4.08-3.08-6.35-.25-.76-.6-1.63.08-2.29.07-.07.14-.13.21-.18.7-.47,1.48,0,2.17.29Z"/>
      <g>
        <path class="cls-14" d="M347.18,228.14c.07.11.17.22.28.34-.11-.12-.2-.24-.28-.34ZM347.85,228.86c-.15-.14-.28-.27-.39-.38.11.12.24.26.38.39.59.53,1.22,1.03,1.86,1.5-.65-.47-1.27-.97-1.86-1.5ZM348.62,226.46c-.06.02-.12.03-.18.05-.25.06-.46.13-.64.21.18-.07.4-.14.65-.21.12-.04.24-.07.36-.1-.06.01-.12.03-.18.04ZM364.92,124.06c.16.09.32.18.47.27.04.02.08.04.12.06-.2-.11-.39-.21-.59-.33ZM374.73,241.39c1.37.4,2.74.76,4.11,1.12-1.38-.36-2.75-.73-4.11-1.12ZM377.68,123.94l-.09-.03.09.03c.2.07.39.13.56.19-.17-.06-.36-.12-.56-.19ZM377.77,223.56c-.1.3-.19.59-.26.89.07-.29.16-.59.26-.89.13-.38.25-.76.37-1.14-.12.38-.25.76-.38,1.14ZM380.29,205.19c1.44-4.48,2.86-8.96,4.31-13.42-1.45,4.47-2.87,8.94-4.31,13.42ZM382.55,131.49c2.88,1.07,5.77,2.12,8.68,3.12-2.91-1.01-5.8-2.06-8.68-3.12ZM385.12,235.4s-.02,0-.03.01c.01,0,.02,0,.03,0,.1-.02.19-.01.29,0-.1-.02-.19-.03-.29-.01ZM386.19,179.08c-.12-.29-.25-.58-.37-.86.12.28.25.57.37.86.08.19.17.37.26.55-.09-.18-.17-.36-.25-.55ZM387.33,186.07c-.17-.09-.32-.14-.44-.15.12.02.27.07.44.16.32.15.7.26,1.02.41-.32-.16-.69-.26-1.01-.41ZM387.65,180.91c-.19-.09-.36-.19-.51-.32.15.13.32.24.51.33.08.03.16.07.24.1-.08-.04-.16-.07-.24-.11ZM413.14,141.75c-5.88-1.81-11.74-3.68-17.56-5.65,5.82,1.98,11.68,3.85,17.56,5.65,4.25,1.31,8.54,2.51,12.84,3.59-4.31-1.09-8.59-2.29-12.84-3.6ZM436.61,142.56c-.58-.16-1.17-.31-1.76-.45.59.14,1.18.29,1.76.45.52.14,1.04.28,1.57.41-.52-.13-1.05-.27-1.57-.41Z"/>
        <path class="cls-4" d="M427.81,139.75h0s.01-.03.03-.05c-.01.02-.03.04-.04.05ZM427.76,139.87h0s.02-.07.04-.11c-.02.04-.04.07-.05.11ZM455.17,140.15c-1.76-1.58-3.63-2.99-5.71-4.09-2.4-1.26-4.81-2.5-7.33-3.78-.76-.38-.88-1.44-.21-1.99.21-.18.41-.35.62-.52,1.77-1.53,2.28-3.45,1.7-5.7-.89-3.55-3.27-5.53-6.72-6.29-3.63-.81-7.08.16-10.46,1.39-3,1.07-5.59,2.94-8.41,4.36-5.29,2.68-10.05-.15-10.22-6.09-.08-2-.04-3.98-.11-5.98-.06-2.59-.36-5.19-1.67-7.48-1.29-2.3-3.23-3.77-5.91-3.7-2.75.06-4.67,1.6-5.93,4.05-1.12,2.18-1.34,4.5-1.57,6.89-.09.96.26,2.52-1.03,2.78-1.27.25-1.77-1.17-2.25-2.15-.98-1.96-1.81-4.01-2.79-5.98-1.39-2.74-3.31-4.96-6.13-6.3-3.93-1.85-8.16.65-8.55,5.01-.15,1.87.51,3.51,1.23,5.12.45,1,.15,1.26-.82,1.11-1.37-.22-2.73-.43-4.1-.62-3.22-.46-6.42-1.03-9.69-.38-4.02.82-6.04,3.77-5.17,7.82.26,1.19.72,2.35,1.17,3.5,3.59,8.93,7.74,17.6,11.6,26.4l5.06-.39c-.13-.27-.25-.56-.37-.84-1.1-2.54-2.16-5.09-3.19-7.67-.58-1.47-1.22-2.92-1.89-4.35-.93-2.02-1.93-4.02-2.94-6.04-.58-1.17-1.16-2.33-1.74-3.53-.02-.04-.04-.09-.05-.13-.14-.38-.07-.77.13-1.06.02-.03.05-.06.07-.1.08-.1.18-.18.3-.25.08-.05.15-.08.23-.11.04-.02.08-.04.13-.04.08-.02.17-.04.25-.04.1,0,.2.01.3.04.1.02.19.06.28.11.08.04.17.09.25.13.18.11.34.2.52.3.13.07.25.14.38.22.15.09.32.18.47.27.15.09.31.18.47.27h0s0,0,.01.01c.03.01.06.03.09.04.04.02.08.05.13.07.09.06.19.11.29.15.13.08.27.15.41.22h0c3.87,1.91,7.88,3.49,11.9,5.03,1.43.55,2.87,1.1,4.31,1.64.72.27,1.44.53,2.16.79.72.27,1.44.53,2.16.79,1.45.52,2.9,1.03,4.35,1.54,1.45.51,2.9,1,4.36,1.5,5.83,1.97,11.68,3.84,17.56,5.65,1.98.6,3.96,1.19,5.96,1.75l16.33-1.26c-.19-.05-.39-.09-.58-.14-.59-.14-1.19-.27-1.8-.41-.46-.1-.93-.2-1.41-.3-.47-.1-.95-.2-1.43-.3h0c-.32-.08-.65-.15-.99-.22-.03-.01-.06-.01-.08-.02-.03,0-.05-.01-.07-.02-.01,0-.03-.01-.05-.02h0s-.09-.04-.15-.06c-.03,0-.05-.01-.08-.03-.06-.02-.12-.04-.18-.06-.07-.02-.13-.04-.2-.06-.06,0-.11-.03-.16-.04-.1-.03-.18-.07-.25-.11-.08-.04-.13-.09-.17-.14s-.07-.11-.08-.17c0-.04-.01-.08,0-.12,0-.03,0-.07.01-.11,0,0,0-.01,0-.02h0s0-.04.01-.06h0s.02-.07.04-.11h0s0,0,0,0c0-.01.01-.03.03-.05,0-.02.02-.04.04-.06.04-.05.08-.11.13-.16.21-.24.43-.48.64-.72.22-.22.44-.45.66-.67.15-.15.31-.31.47-.45.19-.18.38-.34.58-.51.15-.13.29-.24.44-.35,0,0,.01-.01.02-.01.06-.05.13-.11.2-.15.23-.18.46-.34.7-.49.07-.04.13-.08.2-.13.08-.04.15-.09.22-.13.08-.05.15-.09.22-.13.11-.06.21-.11.32-.17.11-.06.21-.11.32-.15.11-.06.22-.11.33-.15.11-.06.22-.1.34-.13.11-.05.22-.09.34-.13.11-.04.21-.06.31-.07.49-.08.94.05,1.39.22h0c.54.2,1.08.41,1.61.63.4.16.8.32,1.2.49.62.26,1.23.53,1.84.81.3.13.61.27.91.42,1.22.57,2.41,1.18,3.59,1.81,1.12.61,2.23,1.26,3.33,1.93l2.54-.2c3.49-.27,5.46,3.98,4.57,7.13l-.9,3.17s.07-.05.11-.08c3.74-2.71,4.11-8.06.66-11.14ZM379.78,124.25s-.04.04-.07.06c-.23.13-.68.07-1.46-.18-.18-.05-.36-.11-.56-.18l-.08-.04h0c-3.19-1.45-6.61-2.81-9.99-4.39-.61-.28-1.22-.58-1.83-.88s-1.22-.62-1.82-.94c-.3-.16-.6-.32-.9-.49-.7-.38-1.34-.86-2.01-1.32-.33-.22-.83-.44-.71-.93.14-.56.7-.38,1.08-.38.92.01,1.84.05,2.76.11,2.14.13,4.27.4,6.38.72.6.09,1.2.19,1.81.28,1.21.2,2.42.4,3.63.6.08.01.18.04.27.06.08.04.16.07.24.13.15.09.3.22.41.39,1.36,1.93,2.4,4.07,2.91,6.39.1.49.11.82-.04.98ZM436.91,128.17c-.57.34-1.14.67-1.71.99-.29.15-.58.32-.86.48-.58.32-1.15.63-1.73.93-.86.46-1.74.92-2.6,1.4-2.9,1.59-5.56,3.49-7.41,6.33-.53.83-1.19.68-1.86.5-.08-.02-.18-.05-.27-.07-.59-.16-1.18-.32-1.77-.49-1.76-.49-3.53-.99-5.29-1.52-1.17-.35-2.35-.7-3.51-1.08-1.17-.37-2.33-.74-3.49-1.14-6.37-2.26-12.72-4.57-19.11-6.79-1.5-.53-2.28-1.24-2.4-3.01-.15-2.6-.96-4.97-2.04-7.23-.22-.46-.44-.9-.68-1.35-.46-.89-.97-1.77-1.47-2.64-1.18-2.03-2.34-4.08-3.08-6.35-.25-.76-.6-1.63.08-2.29.07-.07.14-.13.21-.18.7-.47,1.48,0,2.17.29.25.1.47.22.68.35.14.09.27.19.4.3s.25.22.37.34c.53.52.96,1.15,1.4,1.74,1.62,2.17,2.69,4.64,3.88,7.04.89,1.73,1.81,3.4,3.38,4.62,2.8,2.15,5.96,1.14,7.07-2.32.43-1.36.51-2.76.58-4.17.01-.2.02-.4.03-.6,0-.44.02-.87.05-1.3.08-1.29.26-2.56.86-3.76.29-.59.66-1,1.07-1.24.7-.38,1.52-.23,2.28.49.07.06.14.13.21.21h0c.32.36.56.74.74,1.15.39.89.49,1.87.52,2.91.11,3.85-.3,7.77.89,11.54.36,1.13.86,2.14,1.48,3.03.15.22.32.44.48.64.25.31.52.6.8.86.18.18.38.35.58.51.11.08.2.16.31.24,1.94,1.45,4.39,2.12,7,1.81.17-.01.34-.04.52-.07.26-.04.52-.09.79-.15.29-.07.57-.15.86-.23,3.51-1.1,6.48-3.31,9.87-4.63.27-.11.54-.21.82-.32.24-.09.47-.18.71-.26.35-.13.71-.26,1.06-.37.23-.08.46-.15.7-.21,0,0,0,0,.01,0,.41-.11.83-.22,1.25-.3.14-.03.28-.06.42-.08.14-.03.28-.05.43-.06.62-.08,1.24-.11,1.87-.07.31.01.62.04.92.08.91.13,1.76.44,2.35,1.29.98,1.39.68,3.32-.81,4.21Z"/>
        <path class="cls-11" d="M447.43,149.78c-.02.07-.06.14-.11.2-.03.04-.07.08-.12.12-.04.03-.09.06-.14.09-.53.3-1.05.59-1.56.86-2.24,1.17-4.4,2.14-6.92,4.03-.04.02-.09.04-.14.05h0s-4.35,2.67-4.35,2.67c-.04.03-.07.05-.11.09-.1.08-.18.18-.24.29-.09.14-.18.27-.28.36-.03.03-.05.05-.08.07-.27.25-.57.37-.84.52-12.01,6.98-24.03,13.94-36.06,20.9-.68.41-1.46.65-2.13,1.1-2.05,1.36-4.02.89-5.96.09-.16-.06-.32-.13-.48-.2,0,0,0,0,0,0-.08-.04-.16-.07-.24-.11-.19-.09-.36-.19-.51-.32h0c-.15-.13-.28-.28-.39-.44h0c-.11-.17-.21-.34-.31-.52-.09-.18-.17-.36-.25-.55-.12-.29-.25-.58-.37-.86-.2-.48-.41-.96-.62-1.43-.22-.51-.44-1.01-.66-1.52-.56-1.27-1.12-2.53-1.69-3.79-3.15-6.98-6.43-13.9-9.55-20.89-.64-1.43-1.27-2.85-1.89-4.28-1.1-2.54-2.16-5.1-3.18-7.67-.59-1.47-1.22-2.92-1.89-4.35-.93-2.01-1.93-4.02-2.94-6.04-.58-1.16-1.16-2.33-1.74-3.53-.02-.04-.04-.09-.05-.13-.14-.38-.06-.77.14-1.06.02-.03.05-.06.07-.1.09-.1.18-.19.29-.26.07-.05.15-.09.23-.11.04-.02.09-.03.13-.04.08-.02.17-.03.26-.03.1,0,.2.01.29.04.1.03.19.06.28.12.09.04.17.09.25.13.18.1.35.2.52.3.13.07.26.14.38.22.32.18.62.36.94.53.31.17.62.34.94.5h0c3.87,1.91,7.87,3.49,11.9,5.03,1.43.55,2.87,1.1,4.31,1.63,2.88,1.07,5.77,2.12,8.68,3.12,1.45.5,2.91,1,4.36,1.5,5.82,1.98,11.68,3.85,17.56,5.65,4.25,1.31,8.54,2.51,12.84,3.59,1.85.46,3.7.91,5.56,1.33,3.72.85,7.45,1.6,11.21,2.26.31.05.62.09.94.12,1,.1,2.02.09,3.03.17.26.03.58.14.68.32.04.07.05.15.04.23Z"/>
        <path class="cls-10" d="M364.92,124.06c.2.11.39.22.59.33-.04-.02-.08-.04-.12-.06-.15-.09-.31-.18-.47-.27Z"/>
        <path class="cls-10" d="M366.33,124.82c-.28-.14-.55-.28-.82-.44.27.15.55.3.82.44Z"/>
        <path class="cls-10" d="M386.19,179.08c.08.19.16.37.25.55-.09-.18-.18-.36-.26-.55-.12-.29-.25-.58-.37-.86.13.28.25.57.37.86Z"/>
        <path class="cls-10" d="M382.55,131.49c2.88,1.07,5.77,2.11,8.68,3.12-2.91-1.01-5.8-2.05-8.68-3.12Z"/>
        <path class="cls-10" d="M387.65,180.91c.08.04.16.07.24.11-.08-.03-.16-.07-.24-.1-.19-.09-.36-.19-.51-.33.15.13.32.24.51.32Z"/>
        <path class="cls-10" d="M425.98,145.35c-4.31-1.08-8.59-2.28-12.84-3.59-5.88-1.81-11.74-3.68-17.56-5.65,5.82,1.97,11.68,3.84,17.56,5.65,4.25,1.3,8.54,2.51,12.84,3.6Z"/>
        <path class="cls-10" d="M397.85,244.11c-.06.06-.14.12-.24.16h0c-.06.04-.13.06-.21.09h0c-.12.04-.25.08-.41.11-.1.02-.21.04-.33.06h0c-.36.06-.72.11-1.08.15-3.54.43-7.06.13-10.5-.68-2.08-.48-4.16-.97-6.23-1.51-1.37-.36-2.75-.73-4.11-1.12-.68-.19-1.36-.4-2.04-.6-2.04-.61-4.05-1.28-6.05-2.01-1-.36-1.99-.74-2.98-1.14-.66-.27-1.31-.54-1.97-.82-.98-.42-1.96-.85-2.92-1.31-1.93-.91-3.84-1.91-5.71-2.99-1.15-.67-2.28-1.37-3.35-2.15-.65-.46-1.27-.96-1.86-1.5-.14-.13-.28-.27-.38-.39-.11-.12-.2-.24-.28-.34-.35-.52-.28-.9.19-1.2.04-.03.08-.05.13-.08.09-.05.19-.09.3-.13.18-.08.4-.15.64-.21.24-.07.48-.12.73-.17t0,0c.24-.05.48-.09.72-.12,1.85-.23,3.7.05,5.52.31,1.55.22,3.08.53,4.6.85.51.11,1.01.21,1.52.32.41.08.81.19,1.19.33.64.24,1.23.59,1.78,1.1,1.15,1.08,3.76.89,5.54-.29.54-.36,1.05-.75,1.51-1.18.12-.11.23-.22.34-.33,1.21-1.22,2.1-2.7,2.65-4.42h0c1.91-5.92,3.8-11.83,5.69-17.73l.07.02c1.44-4.48,2.86-8.95,4.31-13.42.48-1.49.96-2.98,1.45-4.47.06-.21.09-.5.15-.77.02-.07.04-.14.06-.21.03-.1.08-.19.14-.26.02-.03.04-.05.07-.06.1-.07.23-.11.41-.08.12.02.27.06.44.15.32.15.7.25,1.01.41.05.03.1.05.14.08.09.04.17.1.24.16.14.13.26.28.32.49.07.28.06.64-.11,1.14-.99,3.06-1.97,6.13-2.93,9.2-1.61,5.12-3.19,10.25-4.8,15.36-.28.89-.56,1.78-.83,2.67-.56,1.77-1.13,3.55-1.7,5.33-.29.89-.58,1.77-.88,2.65-.1.3-.19.6-.26.89-.6,2.44-.35,4.82.58,7.16.37.96.94,1.73,1.62,2.36.49.45,1.04.82,1.64,1.15.12.07.24.13.36.19.24.12.49.24.75.34.13.06.26.11.38.16.19.07.39.15.6.2.44.1.9.07,1.31-.4.07-.09.15-.14.22-.18.19-.09.38-.05.57.02.04.01.07.03.11.04.11.04.22.1.32.14.03.01.07.03.1.04.25.09.49.17.73.26.48.18.96.36,1.43.56,2.11.88,4.1,1.97,5.96,3.29.83.58,1.63,1.21,2.41,1.88.09.07.18.15.28.25.05.05.1.1.15.15.02.02.05.05.07.07.08.08.15.16.22.24.14.17.27.33.36.46.05.09.1.17.14.25.25.47.25.8,0,1.03Z"/>
        <path class="cls-11" d="M451.62,144.23c-.29.93-1.49.49-2.29.45-2.7-.12-5.37-.47-8.01-1-.52-.11-1.05-.22-1.58-.34-.52-.12-1.05-.24-1.57-.37-.52-.13-1.05-.27-1.57-.41-.58-.16-1.17-.31-1.76-.45s-1.2-.27-1.81-.41c-.46-.1-.92-.2-1.4-.29-.47-.1-.95-.2-1.44-.3h0c-.33-.07-.66-.14-.99-.22-.05-.02-.1-.02-.14-.05-.02,0-.04-.01-.06-.02h0s-.09-.03-.14-.05c-.03,0-.05-.02-.09-.03-.06-.02-.12-.04-.19-.06-.06-.02-.13-.04-.2-.05-.06-.01-.11-.03-.16-.04-.1-.03-.18-.07-.25-.11-.07-.04-.13-.09-.17-.14-.04-.05-.07-.11-.08-.17-.01-.04-.02-.07-.01-.12,0-.03,0-.07.02-.11,0,0,0-.02.01-.02,0-.02,0-.03.01-.05h0s0,0,0,0c.01-.03.03-.06.04-.1h0s0,0,0,0c.02-.03.04-.07.06-.11.04-.05.08-.11.13-.16.21-.24.43-.48.64-.72.22-.23.44-.45.66-.67.15-.15.31-.3.47-.45.19-.18.38-.34.58-.51.14-.12.29-.24.43-.35,0-.01.02-.02.02-.02.06-.05.13-.1.2-.15.23-.17.46-.33.7-.49.07-.04.14-.09.21-.13.07-.04.15-.09.22-.13.07-.05.15-.09.22-.13.11-.06.21-.11.32-.17.21-.11.43-.21.65-.3.11-.04.22-.09.34-.13.11-.04.22-.09.34-.12.1-.03.2-.05.3-.07.49-.07.95.05,1.39.22h0c.54.2,1.08.41,1.61.62.4.16.8.33,1.2.49.62.26,1.23.53,1.84.81.3.14.61.28.91.42,1.21.57,2.41,1.18,3.59,1.82,1.77.96,3.5,1.99,5.19,3.1.07.05.16.1.25.15.09.05.17.11.26.17.09.05.18.11.27.17.04.03.09.06.13.09.13.09.25.19.35.29.27.26.42.56.31.92Z"/>
        <path class="cls-10" d="M427.73,139.94s.01-.05.02-.07c0,.02-.01.04-.01.05,0,0-.01.02-.01.02Z"/>
        <path class="cls-10" d="M427.76,139.86s.03-.06.05-.1c-.02.04-.03.07-.04.1h0Z"/>
        <path class="cls-10" d="M427.81,139.76h0s.04-.07.07-.11c-.03.04-.05.07-.06.11Z"/>
        <path class="cls-10" d="M438.18,142.97c-.52-.13-1.05-.27-1.57-.41-.58-.16-1.17-.31-1.76-.45.59.14,1.18.29,1.76.45.52.14,1.04.28,1.57.41Z"/>
        <path class="cls-11" d="M379.78,124.25s-.04.04-.07.06c-.23.14-.68.07-1.46-.18-.17-.06-.36-.12-.56-.19l-.09-.03h0c-3.19-1.45-6.61-2.82-9.98-4.39-.61-.29-1.22-.58-1.83-.88h0c-.61-.3-1.21-.62-1.82-.94-.3-.16-.6-.33-.9-.49-.69-.38-1.35-.87-2.01-1.32-.33-.22-.83-.45-.71-.93.14-.57.69-.38,1.08-.38.92.01,1.84.04,2.76.11,2.14.14,4.26.41,6.38.73.6.09,1.21.19,1.81.28,1.21.19,2.41.4,3.63.6.09.02.18.04.27.07s.17.07.24.12c.15.09.29.22.41.38,1.37,1.93,2.41,4.07,2.91,6.39.1.5.11.82-.04.99Z"/>
        <path class="cls-10" d="M378.24,124.14c-.17-.05-.36-.12-.56-.19l-.09-.03.09.03c.2.07.39.13.56.19Z"/>
        <path class="cls-13" d="M436.91,128.17c-.57.34-1.14.67-1.71.99-.29.15-.58.32-.86.48-.58.31-1.15.63-1.73.93-.86.46-1.74.92-2.6,1.4-2.9,1.59-5.56,3.49-7.41,6.33-.53.83-1.19.68-1.86.5-.08-.03-.18-.06-.27-.08-.59-.16-1.18-.32-1.77-.48-1.76-.49-3.53-1-5.29-1.52-1.17-.35-2.35-.71-3.51-1.08-1.17-.37-2.33-.74-3.49-1.14-6.37-2.26-12.72-4.57-19.11-6.79-1.5-.53-2.28-1.24-2.4-3.01-.15-2.6-.96-4.97-2.04-7.23-.22-.46-.44-.9-.68-1.35-.46-.89-.97-1.77-1.47-2.64-1.18-2.03-2.34-4.08-3.08-6.35-.25-.76-.6-1.63.08-2.29.07-.07.14-.13.21-.18.7-.47,1.48,0,2.17.29.25.1.47.22.68.35.14.09.27.19.4.3.13.11.25.22.37.34.53.52.96,1.15,1.4,1.74,1.62,2.17,2.69,4.64,3.88,7.04.89,1.73,1.81,3.4,3.38,4.62,2.8,2.15,5.96,1.14,7.07-2.32.43-1.36.51-2.76.58-4.17.01-.2.02-.4.03-.6,0-.44.02-.87.05-1.3.08-1.29.26-2.56.86-3.76.29-.59.66-1,1.07-1.24.7-.38,1.52-.23,2.28.49.07.06.14.13.21.21.32.36.57.74.75,1.15.39.89.49,1.87.52,2.91.11,3.85-.3,7.77.89,11.54.36,1.13.86,2.14,1.48,3.03.15.22.32.44.48.64.25.31.52.6.8.86.18.18.38.35.58.51.11.08.2.16.31.24,1.94,1.45,4.39,2.12,7,1.81.17-.01.34-.04.52-.07.26-.04.53-.09.79-.15.29-.07.57-.15.86-.23,3.51-1.1,6.48-3.31,9.87-4.63.27-.11.54-.21.82-.32.23-.08.47-.18.71-.26.35-.13.71-.26,1.06-.37.23-.07.46-.15.7-.21,0,0,0,0,.01,0,.41-.11.83-.22,1.25-.3.14-.03.28-.06.42-.08.14-.03.28-.05.43-.06.62-.08,1.24-.11,1.87-.07.31.01.62.04.92.08.91.13,1.76.44,2.35,1.29.98,1.39.68,3.32-.81,4.21Z"/>
        <path class="cls-1" d="M377.71,104.84c.07-.06.14-.12.21-.17-.07.05-.14.11-.21.18h0Z"/>
        <path class="cls-1" d="M397.86,112.24c.01-.44.03-.87.06-1.3-.03.43-.04.86-.05,1.3,0,.2-.01.4-.03.6,0-.2.01-.4.02-.6Z"/>
        <path class="cls-1" d="M399.85,105.95c-.41.23-.78.65-1.07,1.24-.6,1.19-.79,2.47-.86,3.76.08-1.29.25-2.56.86-3.77.29-.59.66-1,1.08-1.23Z"/>
        <path class="cls-1" d="M415.15,129.34c-2.61.3-5.06-.36-7-1.81,1.94,1.45,4.39,2.11,7,1.81Z"/>
        <path class="cls-1" d="M430.48,123.09c.41-.12.83-.22,1.25-.3-.42.08-.84.19-1.25.3Z"/>
        <path class="cls-1" d="M435.37,122.66c-.3-.04-.61-.07-.92-.08-.63-.04-1.25,0-1.87.07.61-.08,1.24-.11,1.87-.08.31.02.62.04.92.09Z"/>
        <path class="cls-4" d="M442.55,98.27c-4.03-1.3-8.41,1.26-9.87,5.47-1.54,4.45,1.59,8.15,5.14,9.57,3.49,1.12,8.94-1.62,10-5.01,1.27-4.08-1.16-8.71-5.27-10.03ZM443.63,107.2c-.45,1.54-2.43,2.43-4.22,1.85-1.85-.6-3.15-2.75-2.63-4.35.55-1.69,2.78-2.91,4.36-2.41,1.62.52,2.99,3.19,2.48,4.92Z"/>
        <path class="cls-11" d="M443.63,107.2c-.45,1.54-2.43,2.43-4.22,1.85-1.85-.6-3.15-2.75-2.63-4.35.55-1.69,2.78-2.91,4.36-2.41,1.62.52,2.99,3.19,2.48,4.92Z"/>
        <path class="cls-4" d="M465.02,106.56c-2.92-.85-6.2-.15-9.14,2.13-2.11,1.62-4.26,3.28-5.59,5.71-.75,1.36-.57,1.51.91,1.51s3.06.07,4.6.11c2.67.1,5.23.88,7.88,1.18,3.02.33,5.13-.8,6.01-3.15,1.23-3.22-.32-6.02-4.67-7.48ZM465.26,112.08c-.12,1.05-1.45.85-2.3.79-.46-.03-.93-.07-1.4-.11-1.25-.13-1.46-1.92-.27-2.33,0,0,.02,0,.03,0,.57-.18,1.14-.4,1.73-.25,1.05.26,2.35.65,2.2,1.9Z"/>
        <path class="cls-11" d="M465.26,112.08c-.12,1.05-1.45.85-2.3.79-.46-.03-.93-.07-1.4-.11-1.25-.13-1.46-1.92-.27-2.33,0,0,.02,0,.03,0,.57-.18,1.14-.4,1.73-.25,1.05.26,2.35.65,2.2,1.9Z"/>
        <path class="cls-4" d="M468.35,126.58c-1.05-2.57-3.03-4.14-6.27-5.25l-.15-.05c-3.46-.8-7.16.3-10.51,2.8-1.27.93-1.14,1.5.25,2.36,1.89,1.19,3.73,2.39,5.42,3.89,1.4,1.21,2.84,2.39,4.63,3.08,2.13.8,3.95.51,5.56-1.16,1.59-1.67,1.92-3.58,1.08-5.67ZM464.07,128.72c-.38.44-.98.44-1.48.27-1.66-.5-2.59-1.96-3.68-3.15-.4-.42.19-.61.51-.73.74-.24,1.47-.05,2.18.15,1.01.29,1.81.86,2.33,1.81.28.51.59,1.08.13,1.65Z"/>
        <path class="cls-11" d="M464.07,128.72c-.38.44-.98.44-1.48.27-1.66-.5-2.59-1.96-3.68-3.15-.4-.42.19-.61.51-.73.74-.24,1.47-.05,2.18.15,1.01.29,1.81.86,2.33,1.81.28.51.59,1.08.13,1.65Z"/>
        <path class="cls-4" d="M421.69,112.26c-.7,1.98-3.46,3.39-5.36,2.73-1.81-.61-3.24-3.53-2.62-5.3.73-2.07,3.3-3.39,5.33-2.73,2.13.69,3.39,3.22,2.65,5.3Z"/>
        <path class="cls-4" d="M372.05,88.08c-.59,1.84-2.91,2.87-4.88,2.2-1.9-.66-2.88-2.5-2.31-4.29.69-2.2,2.75-3.42,4.67-2.81,1.93.62,3.15,2.98,2.52,4.9Z"/>
        <path class="cls-4" d="M400.82,91.26c-.54,1.63-2.24,2.55-3.82,2.08-1.7-.52-2.66-2.3-2.09-3.93.64-1.85,2.36-2.86,3.97-2.31,1.74.58,2.54,2.32,1.94,4.16Z"/>
      </g>
      <g>
        <path class="cls-13" d="M455.3,148.2l-.9,3.17-28.63,100.96-16.65,58.79c-.67,2.36-1.79,5.1-4.67,5.09l-75.88-.3-110.97-.56-87.55-.26c-2.61-.01-4.66-.79-5.33-3.08l-8.28-28.37-23.7-79.87-8.16-27.81c-.6-2.02.21-4.06,1.31-5.37,1.18-1.38,2.73-1.75,5.02-1.93l138.62-10.65,101.26-7.72,35.92-2.76,5.06-.39,47.33-3.64,16.33-1.26h0l12.76-.98,2.54-.2c3.49-.27,5.46,3.98,4.57,7.13Z"/>
        <path class="cls-4" d="M404.47,322.2h-.05l-75.88-.3-110.97-.56-87.54-.26c-8.05-.04-10.42-5.18-11.07-7.39l-8.28-28.37-23.69-79.84-8.16-27.83c-1.09-3.7-.16-7.79,2.49-10.93,3.06-3.57,7.17-3.89,9.14-4.04l138.62-10.65,101.26-7.72,119.93-9.22c3.28-.26,6.38,1.11,8.53,3.73,2.44,2.98,3.33,7.3,2.28,11.02l-46.19,162.91c-2.21,7.8-6.87,9.45-10.41,9.45ZM130.12,309.08l87.5.26,110.98.56,74.52.3c.07-.19.14-.43.22-.72l16.65-58.79,29.35-103.49-118.09,9.08-101.26,7.72-138.62,10.65c-.4.03-.69.06-.9.09l8.02,27.34,23.7,79.85,7.92,27.15Z"/>
      </g>
      <g>
        <polygon class="cls-3" points="222.86 304.22 225.33 292.71 221.12 304.24 206.25 304.38 207.11 292 204.42 304.39 187.94 304.55 199.01 253.07 222.41 252.85 220.92 271.14 227.37 252.8 250.79 252.58 239.63 304.07 222.86 304.22"/>
        <polygon class="cls-5" points="243.51 305.26 254.59 253.78 284.87 253.49 281.81 267.41 268.92 267.53 267.93 272.19 278.92 272.08 275.86 285.94 264.97 286.04 263.85 291.18 276.67 291.06 273.71 304.98 243.51 305.26"/>
        <path class="cls-7" d="M278.04,305l.63-2.93,10.44-48.55,15.99-.15c1.9-.02,3.54.04,5.01.17.23.02.47.04.7.07h.23s.14.04.14.04c.76.09,1.46.21,2.12.35,2.23.47,3.95,1.23,5.26,2.33.92.77,1.64,1.74,2.15,2.87l.14.32v.02c.11.27.21.56.29.85.13.44.23.91.31,1.38.12.76.19,1.57.2,2.49.04,3.76-.9,8.69-2.24,15.23l-.23,1.05c-1.82,8.47-3.03,14.06-5.63,17.88-3.09,4.53-7.87,6.33-17.07,6.41l-18.43.17ZM298.3,290.91c.69-.03.75-.15,1.02-.72.76-1.58,1.58-5.31,2.95-11.49,1.34-6.32,2.07-9.82,2.06-11.31,0-.04,0-.08,0-.12-.29-.01-.65,0-.85,0h-.1s-5.07,23.64-5.07,23.64Z"/>
        <polygon class="cls-8" points="315.92 304.65 327 253.16 344.45 253 333.29 304.48 315.92 304.65"/>
        <path class="cls-6" d="M358.48,304.25l.58-8.13-5.67.05-3.02,8.15-17.61.16,21.04-51.58,22.96-.21-1.18,51.39-17.08.16ZM359.87,282.57l.34-4.97-1.82,4.98h1.48Z"/>
        <path class="cls-1" d="M203.94,252.55l19.65-.18-2.35,28.97h.67s10.21-29.05,10.21-29.05l19.57-.18-10.37,47.86-12.75.12,6.98-32.49h-.67s-11.87,32.54-11.87,32.54l-11.34.11,2.23-32.44h-.74s-7.05,32.49-7.05,32.49l-12.46.12,10.29-47.86Z"/>
        <path class="cls-1" d="M259.63,253.26l26.25-.25-2.26,10.3-12.9.12-1.76,8.28,10.97-.1-2.26,10.23-10.9.1-1.9,8.76,12.83-.12-2.18,10.29-26.17.24,10.29-47.86Z"/>
        <path class="cls-1" d="M321.59,259.76c-.07-.42-.16-.81-.26-1.18-.1-.34-.22-.66-.35-.97h0c-.39-.88-.93-1.61-1.66-2.22-1.05-.88-2.48-1.51-4.37-1.9-.66-.14-1.37-.25-2.14-.34,0,0,0,0-.01,0-.25-.03-.51-.05-.78-.08-1.41-.12-3.01-.17-4.8-.16l-14.38.13-.28,1.31h0s-.28,1.29-.28,1.29l-9.57,44.51-.16.75,16.01-.15c8.43-.08,12.71-1.58,15.42-5.56,2.51-3.69,3.7-9.51,5.59-18.31,1.34-6.54,2.24-11.34,2.21-14.88,0-.81-.07-1.55-.18-2.24ZM298.15,289.73l5.69-26.52,1.7-.02c1.27-.01,2.09.01,2.51.56.21.29.32.72.33,1.35.02,1.67-.68,5-2.09,11.68-2.97,13.43-3.04,13.63-6.6,13.67l-1.7.02.16-.75Z"/>
        <path class="cls-1" d="M331.63,252.62l13.42-.13-10.37,47.86-13.35.12,10.29-47.86Z"/>
        <path class="cls-1" d="M357.89,252.27l19.57-.18-1.1,47.77-13.05.12.58-8.13-9.19.09-3.02,8.15-13.34.12,19.56-47.94ZM364.45,281.92l1.28-18.69h-.52s-6.84,18.74-6.84,18.74l6.08-.06Z"/>
      </g>
      <g>
        <g class="cls-15">
          <path class="cls-4" d="M136.12,252.45c-12.54.12-17.93-4.06-18.04-13.98-.03-2.31.18-4.95.62-8.06.4-2.86,1-6.05,1.82-9.75,1.3-5.98,2.42-10.76,3.64-14.65l.04-.12,4.15-9.05.11-.16c2.3-3.19,5.24-5.18,9.24-6.28,2.5-.68,5.53-1.03,9.28-1.07,4.64-.04,9.54.56,11.94,1.46l1.62.61-3.07,14.9-1.88-.16c-3.66-.31-5.81-.44-7.22-.43q-5.09.05-8.08,14.94l-.13.64c-.34,1.75-.66,3.32-.94,4.72-.84,4.14-1.39,6.87-1.37,8.56.01,1.3.02,1.44,3.35,1.41,2.14-.02,5.4-.2,7.5-.55l2.99-.49-3.09,15.4-1.16.37c-2.96.96-7.73,1.68-11.33,1.71Z"/>
          <path class="cls-4" d="M173.12,252.11c-11.82.11-19.72-2.02-19.84-12.79-.05-4.38,1.14-10.29,2.65-17.78l.3-1.51c4.39-22.42,6.04-30.81,25.76-31,2.83-.03,5.21.08,7.25.32l.2.02h.02c4.28.54,10.04,2,11.74,8.17.31,1.13.48,2.37.53,3.8l.02.02v1.7s-.02,0-.02,0c-.12,4.34-1.15,9.96-2.84,17.97l-.59,2.73c-1.9,8.8-3.26,15.15-5.78,19.62-3.48,6.18-8.92,8.62-19.4,8.72ZM173.14,235.7c.23,0,.51,0,.75,0q1.44-.01,1.88-1.03c.87-2.03,1.86-6.74,3.48-14.53,1.71-8.21,2.57-12.71,2.55-14.53,0-.06,0-.12,0-.17-.26,0-.57,0-.74,0q-1.37.01-1.79,1.01c-.86,2.04-1.81,6.74-3.4,14.54l-.05.21c-1.74,8.14-2.7,12.63-2.68,14.41,0,.03,0,.06,0,.09Z"/>
          <path class="cls-4" d="M216.33,251.7c-12.54.12-17.93-4.06-18.04-13.98-.05-4.37.75-10.19,2.44-17.8,2.39-10.99,4.37-19.17,8.09-24.18,3.7-4.98,9.02-7.05,18.37-7.14,2.31-.02,4.79.12,7,.4l1.95-.02v.32c.2.04.39.07.57.11.94.19,1.75.41,2.42.66l1.63.61-.44,2.1-2.64,12.8-2.4-.2c-.58-.05-1.13-.09-1.65-.13-2.33-.18-3.94-.26-5.06-.25q-5.09.05-8.08,14.94l-.13.63c-.34,1.75-.66,3.32-.94,4.72-.84,4.13-1.39,6.87-1.37,8.56.01,1.3.02,1.44,3.35,1.4,1.66-.02,3.61-.11,5.21-.26.89-.08,1.66-.18,2.3-.28l2.99-.49-3.09,15.41-1.16.37c-.83.27-1.78.51-2.83.73-2.75.59-5.93.95-8.51.98Z"/>
          <polygon class="cls-4" points="282.74 250.41 291.99 205.49 281.72 205.58 285.26 188.73 325.78 188.35 322.23 205.21 311.89 205.3 302.55 250.23 282.74 250.41"/>
          <polygon class="cls-4" points="255.76 250.66 253.7 235.05 250.46 250.71 230.65 250.9 243.43 189.12 263.34 188.93 260.51 202.32 267.57 188.9 288.98 188.7 270.44 219.75 275.97 250.48 255.76 250.66"/>
          <path class="cls-4" d="M336.45,249.91l.67-9.81-6.94.06-3.51,9.84-20.07.19,24.31-61.89,26.38-.25-1.34,61.67-19.48.18ZM338.03,224.11l.49-7.58-2.67,7.6,2.17-.02Z"/>
          <polygon class="cls-4" points="355.97 249.73 368.75 187.95 388.65 187.76 375.78 249.54 355.97 249.73"/>
          <polygon class="cls-4" points="379.34 249.51 392.12 187.73 412.03 187.55 402.69 232.47 415.81 232.35 412.26 249.2 379.34 249.51"/>
        </g>
        <g>
          <path class="cls-1" d="M151.66,201.78c1.55-.01,3.88.13,7.42.43l2.37-11.5c-2.17-.82-6.83-1.36-11.14-1.32-3.46.03-6.32.33-8.72.99-3.54.97-6.08,2.7-8.09,5.49-1.34,2.92-2.68,5.84-4.02,8.77-1.22,3.88-2.33,8.66-3.6,14.49-.8,3.59-1.4,6.78-1.79,9.6-.43,2.99-.62,5.57-.6,7.77.1,8.88,4.62,12.11,15.92,12,3.54-.03,8.01-.75,10.68-1.61l2.29-11.42c-2.15.36-5.43.55-7.84.58-3.88.04-5.44-.37-5.47-3.38-.03-2.51.96-6.55,2.35-13.68,3.19-15.87,3.35-17.13,10.25-17.19Z"/>
          <path class="cls-1" d="M297.86,201.5l-10.26.1,2.7-12.85,36.23-.34-2.7,12.85-10.35.1-9.34,44.92-15.53.15,9.25-44.92Z"/>
          <path class="cls-1" d="M202.48,196.08c-1.07-3.91-4.07-5.97-10.15-6.7-.01,0-.02,0-.03,0-1.98-.24-4.3-.33-6.97-.31-18.03.17-19.33,6.97-23.74,29.47-1.64,8.15-2.95,14.36-2.9,18.8.09,7.96,4.44,10.94,17.72,10.81,9.79-.09,14.54-2.27,17.57-7.67,2.62-4.64,3.97-11.67,6.17-21.8,1.69-7.98,2.81-14.02,2.81-18.44,0,0,0,0,0-.01,0-.09,0-.18,0-.27-.02-1.46-.17-2.74-.48-3.88ZM184.62,218.57c-3.52,16.88-3.61,17.13-7.4,17.16-1.9.02-2.85.03-2.87-2.07s.88-6.21,2.77-15.03c3.44-16.88,3.52-17.13,7.23-17.17,1.9-.02,2.85.06,2.87,2.15s-.79,6.29-2.59,14.94Z"/>
          <path class="cls-1" d="M248.47,189.14l15.61-.15-4.67,22.09h1.12s11.66-22.16,11.66-22.16l16.47-.15-17.11,28.65,5.24,29.12-15.87.15-3.01-22.85h-1.12s-4.75,22.93-4.75,22.93l-15.53.15,11.95-57.77Z"/>
          <path class="cls-1" d="M335.67,188.32l-22.73,57.87,15.52-.15,3.51-9.84,10.7-.1-.67,9.81,15.18-.14.49-22.66.76-35.01-22.77.21ZM343.31,224.12l-7.08.07,7.94-22.62h.6s-1.47,22.55-1.47,22.55Z"/>
          <path class="cls-1" d="M373.79,187.97l15.61-.15-12.04,57.77-15.53.15,11.95-57.77Z"/>
          <polygon class="cls-1" points="397.16 187.75 412.77 187.6 403.44 232.53 416.55 232.4 413.85 245.25 385.21 245.52 397.16 187.75"/>
          <path class="cls-1" d="M239.57,189.39c-.66-.14-1.4-.26-2.19-.36,0,0,0,0,0,0-2.08-.27-4.52-.42-6.85-.4-16.91.16-19.42,6.72-24.43,29.73-1.64,7.39-2.44,13.1-2.4,17.37.1,8.88,4.62,12.11,15.92,12,2.55-.02,5.58-.4,8.08-.93.97-.2,1.86-.43,2.6-.68l2.29-11.42c-.72.12-1.56.22-2.45.3-1.79.17-3.78.26-5.39.27-3.88.04-5.44-.37-5.47-3.38-.03-2.51.96-6.55,2.35-13.68,3.19-15.87,3.35-17.13,10.24-17.19,1.21-.01,2.89.07,5.25.26.67.05,1.4.11,2.18.18l2.28-11.04.1-.46c-.55-.21-1.26-.4-2.09-.56Z"/>
        </g>
      </g>
      <g class="cls-12">
        <path class="cls-4" d="M358.5,173.3l.1-.44c.25-1.16.48-2.21.73-3.16-.57-.05-1.03-.08-1.4-.1-.2-.01-.37-.02-.52-.02-.38,0-.57.02-.67.03-.27.42-.61,1.97-1.01,3.75l-.04.19c-.11.53-.22,1-.32,1.43-.18.81-.33,1.47-.4,1.93.02,0,.03,0,.05,0,.79,0,1.72-.06,2.25-.14l.52-.08c.17-.99.42-2.12.7-3.39Z"/>
        <polygon class="cls-4" points="330.78 163.49 324.97 177.06 322.87 177.07 326 163.49 317.63 163.5 312.92 183.98 325.46 183.97 325.46 183.97 330.57 183.96 331.73 180.99 332.21 180.99 331.97 183.96 340.21 183.95 340.9 163.48 330.78 163.49"/>
        <path class="cls-4" d="M402.44,162.95l-.41,1.77c-.87-1.05-2.32-1.64-4.38-1.74-.26-.01-.53-.02-.82-.02h-6.43s0,0,0,0h-6.97s-8.35.02-8.35.02l-.5,2.19c-1.08-1.88-3.46-2.26-5.37-2.35-.4-.02-.84-.03-1.31-.03-2.53,0-4.25.44-5.49,1.29l.06-.27-1.29-.47c-1-.37-2.57-.48-3.2-.51-.33-.02-.66-.02-.98-.02-6.79,0-7.88,3.29-9.53,10.12-.58,2.37-.87,4.19-.86,5.59,0,3.28,1.89,4.97,5.77,5.16.3.01.61.02.94.02,1.26,0,2.88-.22,3.93-.53l.91-.27.26-1.16c1.19,1.51,3.36,1.84,5.13,1.93.4.02.83.03,1.29.03,4.01,0,5.95-1.11,7.15-3.2.72,2.55,3.21,3.05,5.43,3.16.37.02.76.03,1.19.03,3.07,0,4.91-.49,6.13-1.59l-.32,1.38h8.34s1.21-5.24,1.21-5.24h.74c1.95,0,3.36-.37,4.4-.98l-1.43,6.2h13.13s1.54-6.79,1.54-6.79h-4.77s.04-.17.04-.17h4.06s1.59-6.75,1.59-6.75h.7s1.59-6.78,1.59-6.78h-13.16ZM357.28,176.76c-.54.08-1.46.14-2.25.14-.02,0-.03,0-.05,0,.07-.46.22-1.11.4-1.93.1-.43.2-.9.32-1.43l.04-.19c.4-1.78.74-3.33,1.01-3.75.1-.01.29-.03.67-.03.15,0,.32,0,.52.02.37.02.83.05,1.4.1-.25.96-.48,2.01-.73,3.16l-.1.44c-.29,1.28-.54,2.4-.7,3.39l-.52.08Z"/>
      </g>
      <g>
        <path class="cls-1" d="M320.52,163.61h5s-3.13,13.57-3.13,13.57h4.2s-.91,3.88-.91,3.88h-9.18s4.01-17.45,4.01-17.45Z"/>
        <path class="cls-1" d="M333.46,163.59h7.3s-.59,17.44-.59,17.44h-4.87s.25-2.96.25-2.96h-3.43s-1.16,2.97-1.16,2.97h-4.98s7.47-17.45,7.47-17.45ZM335.8,174.45l.54-6.82h-.19s-2.62,6.83-2.62,6.83h2.27Z"/>
      </g>
      <g>
        <path class="cls-1" d="M348.35,177.68c0-1.29.27-3.02.82-5.25,1.68-6.95,2.5-8.93,7.92-8.94,1.38,0,2.88.17,3.57.43l-.8,3.48c-1.13-.1-1.88-.15-2.38-.15-2.21,0-2.27.38-3.34,5.18-.47,2.16-.8,3.37-.8,4.14,0,.91.5,1.04,1.74,1.04.77,0,1.82-.05,2.52-.15l-.77,3.45c-.86.25-2.29.46-3.43.46-3.62,0-5.06-.98-5.06-3.67Z"/>
        <path class="cls-1" d="M359.29,178.02c0-1.34.44-3.22.99-5.68,1.48-6.8,1.92-8.85,7.7-8.86,4.26,0,5.61.88,5.62,3.34,0,1.34-.38,3.2-.96,5.66-1.6,6.62-1.87,8.85-7.7,8.86-4.26,0-5.64-.91-5.64-3.32ZM367.66,172.41c.6-2.61.88-3.91.88-4.52s-.3-.66-.91-.66c-1.19,0-1.22.08-2.37,5.18-.63,2.66-.93,3.93-.93,4.54s.3.63.91.63c1.22,0,1.24-.08,2.43-5.18Z"/>
        <path class="cls-1" d="M373.53,178.06c0-1.17.3-2.74.77-4.77l2.2-9.62h4.98s-2.47,10.83-2.47,10.83c-.33,1.4-.49,2.13-.49,2.54,0,.48.22.51.77.51,1,0,1-.08,1.68-3.05l2.5-10.83h4.98s-2.2,9.61-2.2,9.61c-1.54,6.67-1.84,8.04-7.54,8.05-4.04,0-5.17-.88-5.17-3.27Z"/>
        <path class="cls-1" d="M390.57,163.66h6.33c3.4-.01,4.51,1.03,4.51,3.21,0,.81-.16,1.8-.44,2.97-.93,4.06-1.65,6.04-6.16,6.04h-2.07s-1.21,5.23-1.21,5.23h-4.98s4.01-17.45,4.01-17.45ZM394.2,172.15c1.11,0,1.27-.08,1.79-2.39.22-.91.3-1.45.3-1.8,0-.56-.3-.58-1.02-.58h-.58s-1.1,4.77-1.1,4.77h.61Z"/>
        <path class="cls-1" d="M403.84,163.65h9.79s-.88,3.74-.88,3.74h-4.81s-.69,3.02-.69,3.02h4.09s-.88,3.73-.88,3.73h-4.06s-.74,3.2-.74,3.2h4.78s-.85,3.75-.85,3.75h-9.76s4.01-17.44,4.01-17.44Z"/>
      </g>
    </g>
  </g>
</svg>