<?xml version="1.0" encoding="UTF-8"?>
<svg id="Calque_2" data-name="Calque 2" xmlns="http://www.w3.org/2000/svg" viewBox="0 0 1468.69 221.66">
  <defs>
    <style>
      .cls-1 {
        fill: #e83b14;
      }

      .cls-2 {
        fill: none;
      }

      .cls-3 {
        fill: #b2b2b2;
      }

      .cls-4 {
        fill: #1d1e1b;
      }
    </style>
  </defs>
  <g id="DERNIER_LOGO" data-name="DERNIER LOGO">
    <g>
      <path class="cls-4" d="M1401.27,68.99c-4.13.05-8.27.08-12.4.08-2.54,0-5.08-.01-7.61-.04-2.02-.01-4.03-.04-6.05-.08-2.32-.03-4.64-.09-6.96-.15,1.61.05,3.22.09,4.82.12.18,0,.35.01.52.01,9.23.19,18.46.19,27.68.07,3.48-.04,6.95-.13,10.43-.28-3.48.14-6.95.23-10.43.27ZM1385.01,139.72c-.06,8.57-.03,17.14-.03,25.72h-.09s.1.01.1.01c0-8.59-.03-17.16.02-25.73ZM1381.75,128.94c-1.66-1.91-3.33-3.8-5.02-5.68,1.68,1.88,3.35,3.77,5.01,5.68.09.1.18.21.28.31-.1-.1-.18-.21-.27-.31ZM1350.94,207.9c-.11.21-.14.39-.07.59-.05-.18-.02-.38.07-.59ZM1342.18,51.33c-1.66.25-3.31.49-4.96.75,1.65-.25,3.31-.49,4.97-.74.05-.01.09-.02.13-.01-.05,0-.09,0-.14,0Z"/>
      <path class="cls-3" d="M1424.18,208.82c-.07.11-.16.22-.28.34.13-.11.22-.23.28-.34ZM1423.34,209.58c.24-.14.43-.28.56-.42-.13.13-.28.24-.47.36-.03.02-.06.04-.09.06ZM1373.07,68.92c.18,0,.35.01.52.01.54.01,1.08.02,1.62.02-2.32-.03-4.64-.09-6.96-.15,1.61.05,3.22.09,4.82.12Z"/>
      <path class="cls-4" d="M1455.4,49.31c-2.96-1.32-6-2.37-9.16-2.94-3.65-.65-7.32-1.24-11.13-1.86-1.15-.18-1.75-1.51-1.11-2.5.2-.32.38-.63.59-.94,1.66-2.74,1.53-5.45-.17-8.15-2.64-4.25-6.58-5.84-11.39-5.39-5.06.47-9.17,3.17-13.06,6.19-3.46,2.66-6.05,6.18-9.14,9.2-5.78,5.72-13.17,4.02-15.88-3.65-.93-2.56-1.71-5.18-2.64-7.75-1.16-3.36-2.63-6.61-5.31-9.06-2.64-2.45-5.78-3.56-9.25-2.35-3.57,1.24-5.43,4.03-6.04,7.76-.55,3.31.15,6.44.84,9.63.29,1.3,1.38,3.17-.18,4.05-1.56.87-2.8-.78-3.83-1.86-2.11-2.15-4.04-4.47-6.13-6.63-2.97-2.99-6.4-5.08-10.64-5.64-5.88-.77-10.36,4.25-9.04,10.11.57,2.5,2.13,4.35,3.74,6.16,1.01,1.12.73,1.59-.59,1.79-1.88.3-3.75.59-5.61.91-4.39.75-8.81,1.35-12.79,3.56-4.91,2.75-6.31,7.45-3.48,12.37.84,1.44,1.93,2.76,2.99,4.07,9.15,11.03,19.05,21.4,28.48,32.18,10.26,11.73,20.78,23.21,31.18,34.8.97,1.08,1.88,2.1,1.85,3.82-.32,17.23-.43,34.46-.27,51.68,0,1.18,0,2.4-.31,3.54-.42,1.65-1.13,3.14-3.3,3.18-5.71.12-11.32,1.02-16.86,2.24-4.54.97-8.8,2.63-12.48,5.59-3.28,2.64-3.51,5.58-.85,8.79,1.53,1.86,3.39,3.25,5.61,4.15,3.94,1.58,8.04,2.54,12.2,3.26,12.58,2.15,25.25,2.39,37.93,1.67,7.58-.44,15.08-1.38,22.31-3.9,2.86-1.02,5.56-2.22,7.63-4.6,2.85-3.34,2.73-6.23-.41-9.32-2.86-2.82-6.38-4.28-10.16-5.32-6.15-1.69-12.5-1.91-18.76-2.86-4.4-.68-4.76-1.2-4.77-5.76-.05-17.17-.03-34.33-.09-51.48,0-2.08.72-3.64,2.11-5.12,13.48-14.43,27.14-28.7,39.96-43.76,7.09-8.33,14.7-16.19,21.21-25.06,3.74-5.08,1.98-12.22-3.8-14.8ZM1339.64,35.69c.68-1.29,2.03-.93,3.16-.84,1.91.13,3.38,1.31,4.84,2.36,3.02,2.15,5.45,4.92,8.01,7.55,1.87,1.89,3.78,3.68,6.33,4.61,4.55,1.63,8.25-1.01,8.25-5.98,0-2.22-.63-4.35-1.21-6.48-.66-2.29-1.31-4.56-.93-6.98.37-2.55,2.2-3.46,4.42-2.18,1.83,1.05,2.66,2.8,3.35,4.75,1.75,4.98,2.86,10.26,5.99,14.67,4.72,6.64,12.85,7.95,19.48,3.31,4.11-2.91,7.07-7.04,10.92-10.17,2.68-2.16,5.39-4.36,8.77-5.24,1.63-.41,3.35-.71,4.85.44,1.86,1.4,2.28,4.04.71,5.82-2.37,2.72-4.93,5.23-7.41,7.85-3.1,3.28-5.78,6.88-7.01,11.35-.39,1.49-1.52,1.39-2.59,1.45-6.69.28-13.4.48-20.11.38-9.25-.29-18.49-.64-27.75-.86-2.18-.05-3.49-.65-4.38-2.92-2.04-5.32-6.08-9.17-10.16-12.88-2.4-2.16-4.77-4.33-6.68-6.99-.64-.88-1.46-1.88-.85-3.02ZM1324.9,57.77c-.52-.13-1.05-.3-1.58-.45-.27-.09-.53-.17-.79-.24-.2-.06-.43-.1-.63-.19-.08-.02-.15-.05-.21-.08-.12-.06-.24-.14-.33-.25-.08-.11-.13-.24-.14-.41-.06-.8.73-.8,1.25-.94,1.2-.38,2.41-.71,3.63-1.02.82-.21,1.63-.4,2.45-.57.41-.1.82-.18,1.23-.26,1.85-.37,3.7-.69,5.56-.99.63-.11,1.25-.2,1.87-.29h.01c1.65-.26,3.3-.5,4.96-.75.04,0,.07,0,.1,0,0,0,.03,0,.04,0,.04,0,.09,0,.13,0,.11,0,.22,0,.33.02.1.03.19.05.29.08.19.06.38.15.54.29.97.73,1.9,1.52,2.76,2.36.64.64,1.26,1.3,1.83,2.02.19.22.37.46.56.71.47.65.93,1.32,1.33,2.04.36.63.5,1.06.34,1.34-.02.02-.04.04-.06.07-.29.33-1.15.4-2.78.36h-.13c-2.68-.32-5.44-.56-8.25-.82-.55-.06-1.09-.12-1.64-.17-1.64-.17-3.31-.35-4.97-.56-.92-.11-1.84-.24-2.76-.38-1.38-.21-2.76-.44-4.14-.72-.27-.05-.53-.12-.8-.19ZM1397.71,203.74c1.09.33,2.25.49,3.43.57.83.04,1.92.11,2.42-1.07.06-.11.11-.19.18-.27.29-.33.72-.28,1.14-.23.15.01.31.03.44.03,5.62.08,11.05,1.18,16.22,3.39.57.21,1.44.7,1.91,1.08.14.11.26.23.35.33.16.17.27.31.35.46.15.28.16.54.03.79-.06.11-.15.23-.28.34-.06.06-.13.12-.21.18-.07.07-.16.12-.26.18-.03.02-.06.04-.09.06-.07.05-.14.09-.21.13-.11.06-.23.13-.35.2-1.21.62-2.43,1.15-3.68,1.62-3.74,1.41-7.65,2.22-11.64,2.54-11.15.96-22.3,1.45-33.4.4-1.1-.1-2.19-.21-3.3-.35-1.64-.2-3.28-.44-4.92-.71-1-.17-1.98-.35-2.97-.55-.65-.11-1.3-.25-1.95-.39-.63-.14-1.26-.28-1.88-.44-2.2-.54-4.38-1.2-6.46-2.14-.59-.27-1.02-.54-1.31-.8-.22-.2-.35-.39-.4-.6-.07-.2-.04-.38.07-.59.05-.13.15-.28.29-.42l.21-.22c.25-.22.55-.45.93-.69,2.77-1.85,5.97-2.36,9.1-2.89,2.82-.49,5.66-.74,8.47-1.04,1.53-.17,2.98-.07,4.47.62,1.57.75,4.03.02,5.88-1.47.23-.19.44-.39.64-.59.21-.21.4-.42.58-.64,2.24-2.78,3.37-6.02,3.38-9.62,0-8.5,0-17.01,0-25.49h0s.09-.01.09-.01c0-8.58-.03-17.15.03-25.72,0-.57-.33-1.48.03-1.92.07-.09.16-.15.27-.19.2-.07.46-.09.85-.03.24.03.5.04.77.05.32.01.66.03.96.1.11.02.2.06.29.1.37.13.67.39.85.86.03.08.05.16.07.24.07.26.1.57.1.95-.02,4.37-.01,8.74.03,13.11.03,4.29.07,8.58.1,12.85.02,3.1.05,6.2.06,9.3.05,5.1.06,10.21,0,15.31-.04,3.96,1.32,7.39,3.79,10.38.26.31.53.59.81.85.28.27.57.51.87.72.15.11.31.2.46.31.74.45,1.55.79,2.39,1.03ZM1449.15,65.66c-.04.06-.08.11-.12.15-.54.6-1.09,1.17-1.65,1.73-.19.19-.37.38-.55.56-.25.25-.49.49-.73.74l-.98.98c-.75.74-1.5,1.52-2.26,2.35-.94,1.05-1.89,2.2-2.85,3.56-.04.04-.1.08-.16.13h0s-4.57,5.29-4.57,5.29c-.11.16-.19.31-.25.48-.02.05-.03.11-.04.16-.05.25-.13.46-.24.65-.04.06-.07.12-.11.18-.25.38-.55.65-.82.92-12.74,14.12-25.5,28.22-38.27,42.33-.1.11-.19.2-.28.3-.67.68-1.44,1.27-2.04,2.03-.07.09-.15.18-.24.28-.25.28-.51.53-.77.76-2.22,1.88-4.99,1.77-7.8,1.47-.87-.08-1.53-.57-2.12-1.16-.1-.09-.19-.19-.28-.3-.06-.06-.12-.13-.18-.2-.04-.04-.07-.07-.1-.11-1.66-1.91-3.33-3.8-5.01-5.68-3.36-3.77-6.76-7.5-10.18-11.22-2.55-2.79-5.13-5.57-7.68-8.37-1.7-1.87-3.4-3.73-5.08-5.61-4.22-4.69-8.37-9.44-12.39-14.33-4.42-5.36-9.38-10.16-14.39-15.41-1.09-1.16-.06-3.07,1.49-2.75,1.6.31,3.13.7,4.66.93,5.85.87,11.72,1.26,17.62,1.58,2.84.17,5.7.31,8.54.43.63.03,1.26.05,1.89.07,2.34.09,4.69.16,7.04.22,1.31.03,2.61.07,3.92.1,1.01.02,2.03.04,3.04.05,2.02.04,4.03.07,6.05.08,2.53.03,5.07.04,7.61.04,4.13,0,8.27-.03,12.4-.08,3.48-.04,6.95-.13,10.43-.27,10.43-.43,20.82-1.33,31.17-2.75,1.81-.24,3.54-.86,5.3-1.28.36-.07.82-.06,1.03.14.26.22.14.57-.05.83ZM1449.67,57.66c-1.42.39-2.86.73-4.31,1.02-2.88.59-5.8.99-8.74,1.25-1.46.13-2.94.23-4.42.29-2.06.08-4.13.29-6.3.51-.98.1-1.97.2-3,.31-.34.03-.69.07-1.04.1-.07,0-.14.01-.21,0-.2,0-.58-.03-.98.01-.25.02-.46.01-.63-.04-.07-.02-.14-.05-.19-.08-.03-.02-.07-.04-.09-.06-.03-.02-.06-.05-.09-.09-.06-.07-.1-.15-.12-.25-.03-.21,0-.49.15-.81,1.4-3.22,3.08-6.19,5.96-8.33.11-.08.22-.15.33-.2.11-.05.22-.1.33-.14.06-.02.12-.04.17-.05.47-.15.95-.16,1.45-.12,7.37.33,14.62,1.5,21.74,3.45,1.08.3,2.79.51,2.79,1.69,0,1.34-1.73,1.26-2.8,1.54Z"/>
      <path class="cls-2" d="M1449.15,65.66c-.05.05-.09.1-.13.14-.74.81-1.46,1.56-2.19,2.3-.25.25-.49.49-.73.74l-.98.98c-.75.74-1.5,1.52-2.26,2.35-.94,1.05-1.89,2.2-2.85,3.56-.04.04-.1.08-.16.13h0s-4.56,5.29-4.56,5.29c-.11.16-.19.31-.25.48-.02.05-.04.1-.05.15-.06.26-.14.47-.23.66-.04.06-.07.12-.11.18-.25.38-.55.65-.82.92-12.74,14.12-25.5,28.22-38.27,42.33-.1.11-.19.2-.28.3-.67.67-1.45,1.25-2.05,2.02-.08.1-.16.19-.23.29-.25.28-.51.53-.77.76-2.22,1.88-4.99,1.77-7.8,1.47-.87-.08-1.53-.57-2.12-1.16-.1-.09-.19-.19-.28-.3-.1-.1-.19-.21-.28-.31-1.66-1.91-3.33-3.8-5.01-5.68-3.36-3.77-6.76-7.5-10.18-11.22-2.55-2.79-5.13-5.57-7.68-8.37-1.69-1.87-3.4-3.73-5.08-5.61-4.22-4.69-8.37-9.44-12.39-14.33-4.42-5.36-9.38-10.16-14.39-15.41-1.09-1.16-.06-3.07,1.49-2.75,1.6.31,3.13.7,4.66.93,5.85.87,11.72,1.26,17.62,1.58,2.84.17,5.7.31,8.54.43.63.03,1.26.05,1.89.07,2.34.09,4.69.16,7.04.22,2.32.06,4.64.12,6.96.15,2.02.04,4.03.07,6.05.08,2.53.03,5.07.04,7.61.04,4.13,0,8.27-.03,12.4-.08,3.48-.04,6.95-.13,10.43-.27,10.43-.43,20.82-1.33,31.17-2.75,1.81-.24,3.54-.86,5.3-1.28.36-.07.82-.06,1.03.14.26.22.14.57-.05.83Z"/>
      <path class="cls-2" d="M1424.18,208.82c-.06.11-.15.23-.28.34-.13.14-.32.28-.56.42-.07.05-.14.09-.21.13-.11.06-.23.13-.35.19-1.21.61-2.43,1.15-3.68,1.63-3.74,1.41-7.65,2.22-11.64,2.54-11.15.96-22.3,1.45-33.4.4-1.1-.1-2.19-.21-3.3-.35-1.64-.2-3.28-.44-4.92-.71-1-.17-1.98-.35-2.97-.55-.65-.12-1.31-.26-1.96-.4-.62-.14-1.25-.28-1.87-.43-2.2-.54-4.38-1.2-6.46-2.14-.59-.27-1.02-.54-1.31-.8-.22-.2-.35-.39-.4-.6-.07-.2-.04-.38.07-.59.05-.13.15-.28.29-.42l.21-.22c.25-.22.55-.45.93-.69,2.77-1.85,5.97-2.36,9.1-2.89,2.82-.49,5.66-.74,8.47-1.04,1.53-.17,2.98-.07,4.47.62,1.57.75,4.03.02,5.88-1.47.23-.19.44-.39.64-.59.21-.21.4-.42.58-.64,2.24-2.78,3.37-6.02,3.38-9.62,0-8.5,0-17.01,0-25.49h0s.09-.01.09-.01c0-8.58-.03-17.15.03-25.72,0-.57-.33-1.48.03-1.92.07-.09.16-.15.27-.19.2-.07.46-.09.85-.03.24.03.5.04.77.05.32.01.66.03.96.1.11.02.2.06.29.1.37.13.67.39.85.86.03.08.05.16.07.24.06.26.09.57.09.94-.02,4.38,0,8.75.04,13.12.03,4.29.07,8.58.1,12.85.02,3.1.05,6.2.06,9.3.04,5.1.05,10.21,0,15.31-.04,3.96,1.32,7.39,3.79,10.38.26.31.53.59.81.85.28.27.57.51.87.72.15.11.31.2.46.31.74.45,1.55.79,2.39,1.03,1.09.33,2.25.49,3.43.57.83.04,1.92.11,2.42-1.07.06-.11.11-.19.18-.27.29-.33.72-.28,1.14-.23.15.01.31.03.44.03,5.62.08,11.05,1.18,16.22,3.39.57.21,1.44.7,1.91,1.08.14.11.26.23.35.33.16.17.27.31.35.46.15.28.16.54.03.79Z"/>
      <path class="cls-2" d="M1452.47,56.12c0,1.34-1.73,1.26-2.8,1.54-1.42.39-2.86.73-4.31,1.02-2.88.59-5.8.99-8.74,1.25-1.46.13-2.94.23-4.42.29-2.06.08-4.13.29-6.3.51-.98.1-1.97.2-3,.31-.34.03-.69.06-1.04.09-.08,0-.14.01-.21,0-.2,0-.58-.02-.98.01-.25.02-.46.01-.63-.03-.07-.02-.14-.05-.19-.08-.03-.02-.07-.04-.09-.06-.03-.02-.06-.05-.09-.09-.06-.07-.1-.15-.12-.25-.03-.21,0-.49.15-.81,1.4-3.22,3.08-6.19,5.96-8.33.11-.08.22-.15.33-.2.11-.06.22-.11.33-.14.06-.02.12-.04.17-.05.47-.15.95-.16,1.45-.12,7.37.33,14.62,1.5,21.74,3.45,1.08.3,2.79.51,2.79,1.69Z"/>
      <path class="cls-2" d="M1350.43,60.18s-.04.04-.06.07c-.29.33-1.15.4-2.78.36h-.13c-2.68-.32-5.44-.56-8.25-.82-.55-.06-1.09-.12-1.64-.17-1.64-.17-3.31-.35-4.97-.56-.92-.12-1.84-.25-2.76-.38-1.38-.22-2.77-.45-4.14-.73-.27-.06-.53-.12-.8-.18-.52-.13-1.05-.3-1.58-.45-.27-.09-.53-.17-.79-.25-.2-.05-.43-.1-.63-.18-.08-.02-.15-.05-.21-.08-.12-.06-.24-.14-.33-.25-.08-.11-.13-.24-.14-.41-.06-.8.73-.8,1.25-.94,1.2-.38,2.41-.71,3.63-1.02.82-.21,1.63-.4,2.45-.57.41-.1.82-.18,1.23-.26,1.85-.37,3.7-.69,5.56-.99.63-.11,1.25-.2,1.87-.29h.01c1.65-.26,3.3-.5,4.96-.75.05,0,.09,0,.14,0,.04,0,.09,0,.13,0,.11,0,.22,0,.33.02.1.03.19.05.29.08.19.06.38.15.54.29.97.73,1.9,1.52,2.76,2.36.64.64,1.26,1.3,1.83,2.02.19.22.37.46.56.71.47.65.93,1.32,1.33,2.04.36.63.5,1.06.34,1.34Z"/>
      <path class="cls-1" d="M1426.58,41.33c-2.37,2.72-4.93,5.23-7.41,7.85-3.1,3.28-5.78,6.88-7.01,11.35-.39,1.49-1.52,1.39-2.59,1.45-6.69.28-13.4.48-20.11.38-9.25-.29-18.49-.64-27.75-.86-2.18-.05-3.49-.65-4.38-2.92-2.04-5.32-6.08-9.17-10.16-12.88-2.4-2.16-4.77-4.33-6.68-6.99-.64-.88-1.46-1.88-.85-3.02.68-1.29,2.03-.93,3.16-.84,1.91.13,3.38,1.31,4.84,2.36,3.02,2.15,5.45,4.92,8.01,7.55,1.87,1.89,3.78,3.68,6.33,4.61,4.55,1.63,8.25-1.01,8.25-5.98,0-2.22-.63-4.35-1.21-6.48-.66-2.29-1.31-4.56-.93-6.98.37-2.55,2.2-3.46,4.42-2.18,1.83,1.05,2.66,2.8,3.35,4.75,1.75,4.98,2.86,10.26,5.99,14.67,4.72,6.64,12.85,7.95,19.48,3.31,4.11-2.91,7.07-7.04,10.92-10.17,2.68-2.16,5.39-4.36,8.77-5.24,1.63-.41,3.35-.71,4.85.44,1.86,1.4,2.28,4.04.71,5.82Z"/>
      <path class="cls-4" d="M1421.42,0c-5.8-.01-10.44,5.15-10.58,11.26-.15,6.45,5.47,9.96,10.71,10.32,5.01,0,10.97-5.86,10.94-10.71C1432.44,5.02,1427.34,0,1421.42,0ZM1421.84,15.36c-2.67,0-5.25-2.26-5.25-4.57,0-2.43,2.41-4.96,4.68-4.97,2.34-.01,5.24,2.91,5.3,5.37.05,2.2-2.15,4.17-4.73,4.17Z"/>
      <path class="cls-1" d="M1426.57,11.19c.05,2.2-2.15,4.17-4.73,4.17s-5.25-2.26-5.25-4.57c0-2.43,2.41-4.96,4.68-4.97,2.34-.01,5.24,2.91,5.3,5.37Z"/>
      <path class="cls-4" d="M1454.19,1.39c-4.17.12-8.14,2.4-11.03,6.61-2.07,3-4.18,6.06-4.9,9.78-.42,2.09-.12,2.21,1.81,1.59,1.99-.64,4.01-1.19,6.05-1.78,3.52-.99,7.19-1.04,10.76-1.76,4.08-.84,6.36-3.19,6.52-6.63.26-4.72-2.93-7.71-9.21-7.81ZM1454.16,10.5c-.62.15-1.24.3-1.87.44-1.69.35-2.71-1.89-1.33-2.92.01,0,.03,0,.04-.02.67-.48,1.33-1,2.15-1.05,1.49-.1,3.34-.13,3.67,1.55.28,1.43-1.53,1.72-2.66,2Z"/>
      <path class="cls-1" d="M1454.16,10.5c-.62.15-1.24.3-1.87.44-1.69.35-2.71-1.89-1.33-2.92.01,0,.03,0,.04-.02.67-.48,1.33-1,2.15-1.05,1.49-.1,3.34-.13,3.67,1.55.28,1.43-1.53,1.72-2.66,2Z"/>
      <path class="cls-4" d="M1466.9,26.11c-2.44-2.92-5.68-4.14-10.37-4.22h-.21c-4.85.4-9.21,3.39-12.54,8.05-1.26,1.74-.86,2.44,1.32,2.97,2.96.76,5.86,1.55,8.69,2.8,2.33,1,4.7,1.94,7.32,2.08,3.11.15,5.37-.98,6.76-3.84,1.37-2.84,1-5.48-.97-7.84ZM1462.22,30.69c-.31.75-1.09.98-1.81.98-2.38.05-4.2-1.46-6.12-2.56-.69-.38,0-.88.36-1.17.87-.61,1.9-.68,2.92-.72,1.44-.05,2.71.36,3.79,1.39.58.54,1.23,1.16.86,2.08Z"/>
      <path class="cls-1" d="M1462.22,30.69c-.31.75-1.09.98-1.81.98-2.38.05-4.2-1.46-6.12-2.56-.69-.38,0-.88.36-1.17.87-.61,1.9-.68,2.92-.72,1.44-.05,2.71.36,3.79,1.39.58.54,1.23,1.16.86,2.08Z"/>
      <path class="cls-4" d="M1400.07,26.96c-.07,2.88-3.09,5.86-5.83,5.8-2.62-.04-5.71-3.24-5.64-5.81.09-3,2.88-5.79,5.8-5.78,3.07.01,5.78,2.78,5.67,5.79Z"/>
      <path class="cls-4" d="M1325.23,16.21c0,2.64-2.58,4.96-5.44,4.91-2.75-.07-4.79-2.05-4.8-4.62-.03-3.16,2.14-5.62,4.91-5.62s5.34,2.56,5.33,5.33Z"/>
      <path class="cls-4" d="M1364.08,8.32c-.02,2.35-1.85,4.26-4.11,4.31-2.44.04-4.43-1.89-4.38-4.24.06-2.69,1.88-4.73,4.21-4.68,2.51.03,4.29,1.95,4.28,4.61Z"/>
    </g>
  </g>
  <g id="PREMIERE_RANGER" data-name="PREMIERE RANGER">
    <g>
      <path class="cls-4" d="M152.71,15.51c-29.82,0-46.12,17.67-46.12,48.61v100.52c0,30.93,16.3,48.61,46.12,48.61s46.12-17.68,46.12-48.61v-100.52c0-30.94-16.29-48.61-46.12-48.61ZM168.45,166.57c0,13.81-6.07,19.06-15.74,19.06s-15.74-5.25-15.74-19.06V62.19c0-13.81,6.09-19.06,15.74-19.06s15.74,5.25,15.74,19.06v104.38Z"/>
      <polygon class="cls-4" points="722.43 183.42 772.42 183.42 772.42 211.04 692.06 211.04 692.06 17.72 722.43 17.72 722.43 183.42"/>
      <rect class="cls-4" x="1147.98" y="19.33" width="30.39" height="193.32"/>
      <polygon class="cls-4" points="425.58 17.72 383.31 103.89 425.58 211.04 394.36 211.04 364.81 133.99 355.41 151.66 355.41 211.04 325.04 211.04 325.04 17.72 355.41 17.72 355.41 101.95 395.18 17.72 425.58 17.72"/>
      <polygon class="cls-4" points="524.43 45.34 492.67 45.34 492.67 211.04 462.29 211.04 462.29 45.34 430.53 45.34 430.53 17.72 524.43 17.72 524.43 45.34"/>
      <polygon class="cls-4" points="933.68 19.33 1016.53 19.33 1016.53 46.95 964.06 46.95 964.06 100.8 1005.76 100.8 1005.76 128.42 964.06 128.42 964.06 185.03 1016.53 185.03 1016.53 212.65 933.68 212.65 933.68 19.33"/>
      <path class="cls-4" d="M550.1,17.72l-30.92,193.32h27.9l5.25-35.07h37.27l5.25,35.07h30.65l-30.92-193.32h-44.48ZM556.18,149.73l14.65-97.77,14.63,97.77h-29.28Z"/>
      <polygon class="cls-4" points="869.34 19.33 911.6 19.33 911.6 212.65 882.87 212.65 882.87 74.01 861.88 212.65 833.16 212.65 810.51 75.95 810.51 212.65 784 212.65 784 19.33 826.26 19.33 848.63 156.59 869.34 19.33"/>
      <path class="cls-4" d="M90.58,64.12v18.78h-28.72v-20.71c0-13.81-6.08-19.06-15.75-19.06s-15.73,5.25-15.73,19.06v104.38c0,13.81,6.07,18.79,15.73,18.79s15.75-4.98,15.75-18.79v-27.61h28.72v25.68c0,30.93-15.46,48.61-45.29,48.61S0,195.57,0,164.64v-100.52C0,33.18,15.46,15.51,45.29,15.51s45.29,17.67,45.29,48.61Z"/>
      <path class="cls-4" d="M1083.37,19.33h-48.06v193.32h48.06c30.37,0,45.29-16.85,45.29-47.78v-97.76c0-30.93-14.92-47.78-45.29-47.78ZM1098.28,166.25c0,13.81-5.8,18.78-15.47,18.78h-17.12V46.95h17.12c9.67,0,15.47,4.97,15.47,18.78v100.52Z"/>
      <path class="cls-4" d="M306.54,64.12v18.78h-28.73v-20.71c0-13.81-6.07-19.06-15.73-19.06s-15.75,5.25-15.75,19.06v104.38c0,13.81,6.08,18.79,15.75,18.79s15.73-4.98,15.73-18.79v-27.61h28.73v25.68c0,30.93-15.46,48.61-45.3,48.61s-45.29-17.68-45.29-48.61v-100.52c0-30.94,15.47-48.61,45.29-48.61s45.3,17.67,45.3,48.61Z"/>
      <rect class="cls-4" x="639.59" y="17.72" width="30.37" height="193.32"/>
      <path class="cls-4" d="M1267.85,19.33h-44.48l-30.93,193.32h27.89l5.25-35.07h37.29l5.25,35.07h30.65l-30.92-193.32ZM1229.45,151.34l14.63-97.77,14.64,97.77h-29.27Z"/>
    </g>
  </g>
</svg>